<svg width="0" height="0" class="hidden">
  <symbol xmlns="http://www.w3.org/2000/svg" version="1.1" xmlns:xlink="http://www.w3.org/1999/xlink" viewBox="0 0 512px 512px" id="workspace">
    <g>
      <path d="M 232.5,-0.5 C 247.833,-0.5 263.167,-0.5 278.5,-0.5C 368.144,10.3879 435.644,54.7213 481,132.5C 497.695,163.971 507.861,197.304 511.5,232.5C 511.5,247.833 511.5,263.167 511.5,278.5C 500.612,368.144 456.279,435.644 378.5,481C 347.029,497.695 313.696,507.861 278.5,511.5C 263.167,511.5 247.833,511.5 232.5,511.5C 142.856,500.612 75.3562,456.279 30,378.5C 13.3053,347.029 3.1386,313.696 -0.5,278.5C -0.5,263.167 -0.5,247.833 -0.5,232.5C 10.3875,142.857 54.7208,75.3573 132.5,30C 163.971,13.3053 197.304,3.1386 232.5,-0.5 Z"></path>
    </g>
    <g>
      <path d="M 177.5,171.5 C 176.41,190.376 167.743,204.376 151.5,213.5C 151.167,213.5 150.833,213.5 150.5,213.5C 146.5,213.5 142.5,213.5 138.5,213.5C 138.5,211.5 138.5,209.5 138.5,207.5C 156.905,201.938 166.405,189.605 167,170.5C 165.989,169.663 164.822,169.33 163.5,169.5C 162.767,186.549 154.434,197.882 138.5,203.5C 138.5,194.167 138.5,184.833 138.5,175.5C 141.385,175.806 144.052,175.473 146.5,174.5C 135.549,172.522 124.216,171.856 112.5,172.5C 112.5,173.5 112.5,174.5 112.5,175.5C 115.5,175.5 118.5,175.5 121.5,175.5C 121.5,188.167 121.5,200.833 121.5,213.5C 117.069,213.231 112.735,213.564 108.5,214.5C 86.0652,200.382 78.2319,180.382 85,154.5C 97.2102,129.309 117.044,119.809 144.5,126C 164.954,134.29 175.954,149.457 177.5,171.5 Z"></path>
    </g>
    <g>
      <path d="M 124.5,133.5 C 126.527,133.338 128.527,133.505 130.5,134C 131.337,135.011 131.67,136.178 131.5,137.5C 109.581,138.919 97.7477,150.586 96,172.5C 95.2825,173.451 94.4491,173.617 93.5,173C 91.9362,159.121 96.9362,148.121 108.5,140C 113.603,136.938 118.936,134.771 124.5,133.5 Z"></path>
    </g>
    <g>
      <path d="M 138.5,207.5 C 138.5,206.167 138.5,204.833 138.5,203.5C 154.434,197.882 162.767,186.549 163.5,169.5C 164.822,169.33 165.989,169.663 167,170.5C 166.405,189.605 156.905,201.938 138.5,207.5 Z"></path>
    </g>
    <g>
      <path d="M 177.5,171.5 C 240.833,171.5 304.167,171.5 367.5,171.5C 367.5,211.833 367.5,252.167 367.5,292.5C 338.867,295.133 323.2,310.8 320.5,339.5C 256.833,339.5 193.167,339.5 129.5,339.5C 129.5,316.5 129.5,293.5 129.5,270.5C 133.833,270.5 138.167,270.5 142.5,270.5C 142.5,266.833 142.5,263.167 142.5,259.5C 146.371,259.815 150.038,259.482 153.5,258.5C 153.5,257.5 153.5,256.5 153.5,255.5C 156.167,254.5 156.167,253.5 153.5,252.5C 153.5,251.5 153.5,250.5 153.5,249.5C 154.5,249.5 155.5,249.5 156.5,249.5C 156.5,248.167 156.5,246.833 156.5,245.5C 155.5,245.5 154.5,245.5 153.5,245.5C 153.5,244.5 153.5,243.5 153.5,242.5C 156.167,241.5 156.167,240.5 153.5,239.5C 153.5,238.167 153.5,236.833 153.5,235.5C 156.167,234.5 156.167,233.5 153.5,232.5C 153.715,230.821 153.048,229.821 151.5,229.5C 151.5,224.167 151.5,218.833 151.5,213.5C 167.743,204.376 176.41,190.376 177.5,171.5 Z"></path>
    </g>
    <g>
      <path d="M 146.5,174.5 C 138.648,174.175 130.982,174.508 123.5,175.5C 123.5,193.5 123.5,211.5 123.5,229.5C 122.833,229.5 122.167,229.5 121.5,229.5C 121.5,224.167 121.5,218.833 121.5,213.5C 121.5,200.833 121.5,188.167 121.5,175.5C 118.5,175.5 115.5,175.5 112.5,175.5C 112.5,174.5 112.5,173.5 112.5,172.5C 124.216,171.856 135.549,172.522 146.5,174.5 Z"></path>
    </g>
    <g>
      <path d="M 123.5,175.5 C 127.5,175.5 131.5,175.5 135.5,175.5C 135.5,188.167 135.5,200.833 135.5,213.5C 131.833,213.5 128.167,213.5 124.5,213.5C 124.5,218.5 124.5,223.5 124.5,228.5C 128.167,228.5 131.833,228.5 135.5,228.5C 135.5,228.833 135.5,229.167 135.5,229.5C 131.5,229.5 127.5,229.5 123.5,229.5C 123.5,211.5 123.5,193.5 123.5,175.5 Z"></path>
    </g>
    <g>
      <path d="M 123.5,175.5 C 130.982,174.508 138.648,174.175 146.5,174.5C 144.052,175.473 141.385,175.806 138.5,175.5C 137.503,193.326 137.17,211.326 137.5,229.5C 136.833,229.5 136.167,229.5 135.5,229.5C 135.5,229.167 135.5,228.833 135.5,228.5C 135.5,223.5 135.5,218.5 135.5,213.5C 135.5,200.833 135.5,188.167 135.5,175.5C 131.5,175.5 127.5,175.5 123.5,175.5 Z"></path>
    </g>
    <g>
      <path d="M 223.5,228.5 C 223.5,229.5 223.5,230.5 223.5,231.5C 223.5,238.5 223.5,245.5 223.5,252.5C 209.833,252.5 196.167,252.5 182.5,252.5C 182.5,237.5 182.5,222.5 182.5,207.5C 196.167,207.5 209.833,207.5 223.5,207.5C 223.5,214.5 223.5,221.5 223.5,228.5 Z"></path>
    </g>
    <g>
      <path d="M 315.5,252.5 C 301.833,252.5 288.167,252.5 274.5,252.5C 274.5,245.167 274.5,237.833 274.5,230.5C 274.5,230.167 274.5,229.833 274.5,229.5C 274.5,222.167 274.5,214.833 274.5,207.5C 288.167,207.5 301.833,207.5 315.5,207.5C 315.5,222.5 315.5,237.5 315.5,252.5 Z"></path>
    </g>
    <g>
      <path d="M 187.5,213.5 C 191.167,213.5 194.833,213.5 198.5,213.5C 198.5,214.5 198.5,215.5 198.5,216.5C 194.833,216.5 191.167,216.5 187.5,216.5C 187.5,215.5 187.5,214.5 187.5,213.5 Z"></path>
    </g>
    <g>
      <path d="M 203.5,213.5 C 208.5,213.5 213.5,213.5 218.5,213.5C 218.5,214.5 218.5,215.5 218.5,216.5C 213.5,216.5 208.5,216.5 203.5,216.5C 203.5,215.5 203.5,214.5 203.5,213.5 Z"></path>
    </g>
    <g>
      <path d="M 279.5,213.5 C 289.833,213.5 300.167,213.5 310.5,213.5C 310.5,214.5 310.5,215.5 310.5,216.5C 300.167,216.5 289.833,216.5 279.5,216.5C 279.5,215.5 279.5,214.5 279.5,213.5 Z"></path>
    </g>
    <g>
      <path d="M 121.5,213.5 C 121.5,218.833 121.5,224.167 121.5,229.5C 117.167,229.5 112.833,229.5 108.5,229.5C 108.5,224.5 108.5,219.5 108.5,214.5C 112.735,213.564 117.069,213.231 121.5,213.5 Z"></path>
    </g>
    <g>
      <path d="M 135.5,213.5 C 135.5,218.5 135.5,223.5 135.5,228.5C 131.833,228.5 128.167,228.5 124.5,228.5C 124.5,223.5 124.5,218.5 124.5,213.5C 128.167,213.5 131.833,213.5 135.5,213.5 Z"></path>
    </g>
    <g>
      <path d="M 138.5,175.5 C 138.5,184.833 138.5,194.167 138.5,203.5C 138.5,204.833 138.5,206.167 138.5,207.5C 138.5,209.5 138.5,211.5 138.5,213.5C 138.5,218.5 138.5,223.5 138.5,228.5C 142.5,228.5 146.5,228.5 150.5,228.5C 150.5,223.5 150.5,218.5 150.5,213.5C 150.833,213.5 151.167,213.5 151.5,213.5C 151.5,218.833 151.5,224.167 151.5,229.5C 146.833,229.5 142.167,229.5 137.5,229.5C 137.17,211.326 137.503,193.326 138.5,175.5 Z"></path>
    </g>
    <g>
      <path d="M 138.5,213.5 C 142.5,213.5 146.5,213.5 150.5,213.5C 150.5,218.5 150.5,223.5 150.5,228.5C 146.5,228.5 142.5,228.5 138.5,228.5C 138.5,223.5 138.5,218.5 138.5,213.5 Z"></path>
    </g>
    <g>
      <path d="M 187.5,228.5 C 197.833,228.5 208.167,228.5 218.5,228.5C 218.5,229.5 218.5,230.5 218.5,231.5C 208.167,231.5 197.833,231.5 187.5,231.5C 187.5,230.5 187.5,229.5 187.5,228.5 Z"></path>
    </g>
    <g>
      <path d="M 274.5,229.5 C 274.5,229.833 274.5,230.167 274.5,230.5C 271.393,231.889 268.393,233.555 265.5,235.5C 264.571,234.311 264.238,232.978 264.5,231.5C 250.833,231.5 237.167,231.5 223.5,231.5C 223.5,230.5 223.5,229.5 223.5,228.5C 237.167,228.5 250.833,228.5 264.5,228.5C 264.343,227.127 264.51,225.793 265,224.5C 268.076,226.426 271.242,228.092 274.5,229.5 Z"></path>
    </g>
    <g>
      <path d="M 279.5,228.5 C 285.833,228.5 292.167,228.5 298.5,228.5C 298.5,229.5 298.5,230.5 298.5,231.5C 292.167,231.5 285.833,231.5 279.5,231.5C 279.5,230.5 279.5,229.5 279.5,228.5 Z"></path>
    </g>
    <g>
      <path d="M 108.5,229.5 C 112.833,229.5 117.167,229.5 121.5,229.5C 122.167,229.5 122.833,229.5 123.5,229.5C 127.5,229.5 131.5,229.5 135.5,229.5C 136.167,229.5 136.833,229.5 137.5,229.5C 142.167,229.5 146.833,229.5 151.5,229.5C 153.048,229.821 153.715,230.821 153.5,232.5C 137.5,232.5 121.5,232.5 105.5,232.5C 105.5,231.5 105.5,230.5 105.5,229.5C 106.5,229.5 107.5,229.5 108.5,229.5 Z"></path>
    </g>
    <g>
      <path d="M 105.5,232.5 C 121.5,232.5 137.5,232.5 153.5,232.5C 156.167,233.5 156.167,234.5 153.5,235.5C 136.833,235.5 120.167,235.5 103.5,235.5C 103.285,233.821 103.952,232.821 105.5,232.5 Z"></path>
    </g>
    <g>
      <path d="M 103.5,235.5 C 120.167,235.5 136.833,235.5 153.5,235.5C 153.5,236.833 153.5,238.167 153.5,239.5C 137.5,239.5 121.5,239.5 105.5,239.5C 105.473,237.801 104.806,236.467 103.5,235.5 Z"></path>
    </g>
    <g>
      <path d="M 105.5,239.5 C 121.5,239.5 137.5,239.5 153.5,239.5C 156.167,240.5 156.167,241.5 153.5,242.5C 137.5,242.5 121.5,242.5 105.5,242.5C 102.833,241.5 102.833,240.5 105.5,239.5 Z"></path>
    </g>
    <g>
      <path d="M 105.5,242.5 C 121.5,242.5 137.5,242.5 153.5,242.5C 153.5,243.5 153.5,244.5 153.5,245.5C 137.5,245.5 121.5,245.5 105.5,245.5C 105.5,244.5 105.5,243.5 105.5,242.5 Z"></path>
    </g>
    <g>
      <path d="M 187.5,243.5 C 194.833,243.5 202.167,243.5 209.5,243.5C 209.5,244.5 209.5,245.5 209.5,246.5C 202.167,246.5 194.833,246.5 187.5,246.5C 187.5,245.5 187.5,244.5 187.5,243.5 Z"></path>
    </g>
    <g>
      <path d="M 105.5,245.5 C 121.5,245.5 137.5,245.5 153.5,245.5C 154.091,246.151 154.757,246.818 155.5,247.5C 154.757,248.182 154.091,248.849 153.5,249.5C 137.5,249.5 121.5,249.5 105.5,249.5C 104.414,249.38 103.747,248.713 103.5,247.5C 103.747,246.287 104.414,245.62 105.5,245.5 Z"></path>
    </g>
    <g>
      <path d="M 153.5,245.5 C 154.5,245.5 155.5,245.5 156.5,245.5C 156.5,246.833 156.5,248.167 156.5,249.5C 155.5,249.5 154.5,249.5 153.5,249.5C 154.091,248.849 154.757,248.182 155.5,247.5C 154.757,246.818 154.091,246.151 153.5,245.5 Z"></path>
    </g>
    <g>
      <path d="M 105.5,249.5 C 121.5,249.5 137.5,249.5 153.5,249.5C 153.5,250.5 153.5,251.5 153.5,252.5C 137.5,252.5 121.5,252.5 105.5,252.5C 105.5,251.5 105.5,250.5 105.5,249.5 Z"></path>
    </g>
    <g>
      <path d="M 105.5,252.5 C 121.5,252.5 137.5,252.5 153.5,252.5C 156.167,253.5 156.167,254.5 153.5,255.5C 137.833,255.5 122.167,255.5 106.5,255.5C 106.167,255.5 105.833,255.5 105.5,255.5C 102.833,254.5 102.833,253.5 105.5,252.5 Z"></path>
    </g>
    <g>
      <path d="M 204.5,279.5 C 203.5,279.5 202.5,279.5 201.5,279.5C 201.5,273.833 201.5,268.167 201.5,262.5C 200.127,262.657 198.793,262.49 197.5,262C 198.96,258.911 200.793,256.078 203,253.5C 205.207,256.078 207.04,258.911 208.5,262C 207.207,262.49 205.873,262.657 204.5,262.5C 204.5,268.167 204.5,273.833 204.5,279.5 Z"></path>
    </g>
    <g>
      <path d="M 106.5,255.5 C 122.167,255.5 137.833,255.5 153.5,255.5C 153.5,256.5 153.5,257.5 153.5,258.5C 137.833,258.5 122.167,258.5 106.5,258.5C 106.5,257.5 106.5,256.5 106.5,255.5 Z"></path>
    </g>
    <g>
      <path d="M 105.5,255.5 C 105.833,255.5 106.167,255.5 106.5,255.5C 106.5,256.5 106.5,257.5 106.5,258.5C 122.167,258.5 137.833,258.5 153.5,258.5C 150.038,259.482 146.371,259.815 142.5,259.5C 133.833,259.5 125.167,259.5 116.5,259.5C 112.833,259.5 109.167,259.5 105.5,259.5C 105.5,258.167 105.5,256.833 105.5,255.5 Z"></path>
    </g>
    <g>
      <path d="M 116.5,259.5 C 125.167,259.5 133.833,259.5 142.5,259.5C 142.5,263.167 142.5,266.833 142.5,270.5C 138.167,270.5 133.833,270.5 129.5,270.5C 125.167,270.5 120.833,270.5 116.5,270.5C 116.5,266.833 116.5,263.167 116.5,259.5 Z"></path>
    </g>
    <g>
      <path d="M 274.5,252.5 C 288.167,252.5 301.833,252.5 315.5,252.5C 309.355,253.49 303.022,253.823 296.5,253.5C 296.5,258.833 296.5,264.167 296.5,269.5C 297.978,269.238 299.311,269.571 300.5,270.5C 298.568,273.366 296.901,276.366 295.5,279.5C 295.167,279.5 294.833,279.5 294.5,279.5C 293.111,276.393 291.445,273.393 289.5,270.5C 290.689,269.571 292.022,269.238 293.5,269.5C 293.5,264.167 293.5,258.833 293.5,253.5C 286.978,253.823 280.645,253.49 274.5,252.5 Z"></path>
    </g>
    <g>
      <path d="M 201.5,279.5 C 202.5,279.5 203.5,279.5 204.5,279.5C 210.833,279.5 217.167,279.5 223.5,279.5C 223.5,284.5 223.5,289.5 223.5,294.5C 209.833,294.5 196.167,294.5 182.5,294.5C 182.5,289.5 182.5,284.5 182.5,279.5C 188.833,279.5 195.167,279.5 201.5,279.5 Z"></path>
    </g>
    <g>
      <path d="M 294.5,279.5 C 294.833,279.5 295.167,279.5 295.5,279.5C 302.167,279.5 308.833,279.5 315.5,279.5C 315.5,289.5 315.5,299.5 315.5,309.5C 301.833,309.5 288.167,309.5 274.5,309.5C 274.5,299.5 274.5,289.5 274.5,279.5C 281.167,279.5 287.833,279.5 294.5,279.5 Z"></path>
    </g>
    <g>
      <path d="M 187.5,285.5 C 197.833,285.5 208.167,285.5 218.5,285.5C 218.5,286.5 218.5,287.5 218.5,288.5C 208.167,288.5 197.833,288.5 187.5,288.5C 187.5,287.5 187.5,286.5 187.5,285.5 Z"></path>
    </g>
    <g>
      <path d="M 279.5,285.5 C 289.833,285.5 300.167,285.5 310.5,285.5C 310.5,286.833 310.5,288.167 310.5,289.5C 300.167,289.5 289.833,289.5 279.5,289.5C 279.5,288.167 279.5,286.833 279.5,285.5 Z"></path>
    </g>
    <g>
      <path d="M 367.5,171.5 C 368.499,211.663 368.832,251.997 368.5,292.5C 394.136,294.143 409.469,307.477 414.5,332.5C 418.308,332.163 421.974,332.663 425.5,334C 428.864,337.026 429.364,340.526 427,344.5C 423.138,346.005 419.138,347.005 415,347.5C 409.382,372.495 393.716,385.829 368,387.5C 339.284,384.284 323.451,368.284 320.5,339.5C 323.2,310.8 338.867,295.133 367.5,292.5C 367.5,252.167 367.5,211.833 367.5,171.5 Z"></path>
    </g>
    <g>
      <path d="M 279.5,300.5 C 285.5,300.5 291.5,300.5 297.5,300.5C 297.5,301.5 297.5,302.5 297.5,303.5C 291.5,303.5 285.5,303.5 279.5,303.5C 279.5,302.5 279.5,301.5 279.5,300.5 Z"></path>
    </g>
    <g>
      <path d="M 395.5,316.5 C 391.612,315.032 387.279,313.532 382.5,312C 361.616,309.898 347.782,318.731 341,338.5C 339.211,348.293 340.711,357.46 345.5,366C 345.272,366.399 344.938,366.565 344.5,366.5C 332.809,355.898 329.309,342.898 334,327.5C 343.726,307.029 359.56,299.863 381.5,306C 387.13,308.305 391.797,311.805 395.5,316.5 Z"></path>
    </g>
    <g>
      <path d="M 395.5,316.5 C 407.907,333.351 407.24,349.851 393.5,366C 382.577,374.919 370.244,377.585 356.5,374C 351.93,372.226 347.93,369.726 344.5,366.5C 344.938,366.565 345.272,366.399 345.5,366C 340.711,357.46 339.211,348.293 341,338.5C 347.782,318.731 361.616,309.898 382.5,312C 387.279,313.532 391.612,315.032 395.5,316.5 Z"></path>
    </g>
    <g>
      <path d="M 119.5,371.5 C 172.5,371.5 225.5,371.5 278.5,371.5C 278.5,374.167 278.5,376.833 278.5,379.5C 225.5,379.5 172.5,379.5 119.5,379.5C 119.5,376.833 119.5,374.167 119.5,371.5 Z"></path>
    </g>
    <g>
      <path d="M 278.5,371.5 C 280.5,371.5 282.5,371.5 284.5,371.5C 284.5,374.167 284.5,376.833 284.5,379.5C 284.5,382.167 284.5,384.833 284.5,387.5C 282.5,387.5 280.5,387.5 278.5,387.5C 278.5,384.833 278.5,382.167 278.5,379.5C 278.5,376.833 278.5,374.167 278.5,371.5 Z"></path>
    </g>
    <g>
      <path d="M 284.5,371.5 C 289.167,371.5 293.833,371.5 298.5,371.5C 298.821,377.026 298.488,382.36 297.5,387.5C 297.5,384.833 297.5,382.167 297.5,379.5C 293.167,379.5 288.833,379.5 284.5,379.5C 284.5,376.833 284.5,374.167 284.5,371.5 Z"></path>
    </g>
    <g>
      <path fill="#f8fbfb" d="M 119.5,371.5 C 119.5,374.167 119.5,376.833 119.5,379.5C 119.5,382.167 119.5,384.833 119.5,387.5C 116.45,385.308 113.117,383.642 109.5,382.5C 109.5,380.5 109.5,378.5 109.5,376.5C 112.833,374.833 116.167,373.167 119.5,371.5 Z"></path>
    </g>
    <g>
      <path fill="#253745" d="M 109.5,376.5 C 109.5,378.5 109.5,380.5 109.5,382.5C 103.111,380.167 103.111,378.167 109.5,376.5 Z"></path>
    </g>
    <g>
      <path fill="#242e3d" d="M 119.5,379.5 C 172.5,379.5 225.5,379.5 278.5,379.5C 278.5,382.167 278.5,384.833 278.5,387.5C 225.5,387.5 172.5,387.5 119.5,387.5C 119.5,384.833 119.5,382.167 119.5,379.5 Z"></path>
    </g>
    <g>
      <path fill="#242e3d" d="M 284.5,379.5 C 288.833,379.5 293.167,379.5 297.5,379.5C 297.5,382.167 297.5,384.833 297.5,387.5C 293.167,387.5 288.833,387.5 284.5,387.5C 284.5,384.833 284.5,382.167 284.5,379.5 Z"></path>
    </g>
  </symbol>
  <symbol xmlns="http://www.w3.org/2000/svg" version="1.1" xmlns:xlink="http://www.w3.org/1999/xlink" viewBox="0 0 512px 512px" id="pencil">
    <g>
      <path fill="#f1f1f1" d="M 232.5,-0.5 C 247.833,-0.5 263.167,-0.5 278.5,-0.5C 368.144,10.3879 435.644,54.7213 481,132.5C 497.695,163.971 507.861,197.304 511.5,232.5C 511.5,247.833 511.5,263.167 511.5,278.5C 500.612,368.144 456.279,435.644 378.5,481C 347.029,497.695 313.696,507.861 278.5,511.5C 263.167,511.5 247.833,511.5 232.5,511.5C 142.856,500.612 75.3562,456.279 30,378.5C 13.3053,347.029 3.1386,313.696 -0.5,278.5C -0.5,263.167 -0.5,247.833 -0.5,232.5C 10.3875,142.857 54.7208,75.3573 132.5,30C 163.971,13.3053 197.304,3.1386 232.5,-0.5 Z"></path>
    </g>
    <g>
      <path fill="#262f3d" d="M 247.5,110.5 C 236.98,115.261 226.646,120.261 216.5,125.5C 215.325,125.719 214.325,125.386 213.5,124.5C 210.56,118.954 207.894,113.287 205.5,107.5C 217.013,101.577 228.68,95.9103 240.5,90.5C 244.027,96.2211 247.027,102.221 249.5,108.5C 249.145,109.522 248.478,110.189 247.5,110.5 Z"></path>
    </g>
    <g>
      <path fill="#fd6d3c" d="M 287.5,100.5 C 286.504,100.414 285.671,100.748 285,101.5C 280.737,110.124 276.57,118.79 272.5,127.5C 272.863,128.183 273.196,128.85 273.5,129.5C 268.821,127.891 264.488,128.558 260.5,131.5C 259.046,128.592 257.546,125.592 256,122.5C 255.23,121.402 254.397,121.402 253.5,122.5C 257.924,111.897 262.924,101.564 268.5,91.5C 275.022,94.3283 281.355,97.3283 287.5,100.5 Z"></path>
    </g>
    <g>
      <path fill="#f05526" d="M 287.5,100.5 C 293.156,102.661 298.489,105.328 303.5,108.5C 297.488,121.855 291.488,135.188 285.5,148.5C 282.503,143.84 280.003,138.84 278,133.5C 276.629,131.959 275.129,130.625 273.5,129.5C 273.196,128.85 272.863,128.183 272.5,127.5C 276.57,118.79 280.737,110.124 285,101.5C 285.671,100.748 286.504,100.414 287.5,100.5 Z"></path>
    </g>
    <g>
      <path fill="#c9c8c8" d="M 247.5,110.5 C 248.403,114.889 250.069,118.889 252.5,122.5C 242.821,127.733 232.821,132.399 222.5,136.5C 221.756,132.003 219.756,128.336 216.5,125.5C 226.646,120.261 236.98,115.261 247.5,110.5 Z"></path>
    </g>
    <g>
      <path fill="#252d3c" d="M 260.5,131.5 C 261.145,133.826 262.478,135.493 264.5,136.5C 264.196,137.15 263.863,137.817 263.5,138.5C 267.608,147.713 271.941,156.713 276.5,165.5C 290.562,196.624 304.895,227.624 319.5,258.5C 305.167,258.5 290.833,258.5 276.5,258.5C 276.167,258.5 275.833,258.5 275.5,258.5C 268.737,243.311 261.737,228.311 254.5,213.5C 251.396,205.497 247.729,197.83 243.5,190.5C 240.344,182.192 236.677,174.192 232.5,166.5C 228.953,157.737 225.12,149.071 221,140.5C 220.516,138.807 221.016,137.473 222.5,136.5C 232.821,132.399 242.821,127.733 252.5,122.5C 252.833,122.5 253.167,122.5 253.5,122.5C 254.397,121.402 255.23,121.402 256,122.5C 257.546,125.592 259.046,128.592 260.5,131.5 Z"></path>
    </g>
    <g>
      <path fill="#191e2a" d="M 273.5,129.5 C 275.129,130.625 276.629,131.959 278,133.5C 280.003,138.84 282.503,143.84 285.5,148.5C 297.548,175.598 309.881,202.598 322.5,229.5C 320.839,232.092 318.672,232.759 316,231.5C 304.759,206.687 293.259,182.02 281.5,157.5C 278.62,150.738 275.453,144.072 272,137.5C 269.806,135.163 267.306,134.83 264.5,136.5C 262.478,135.493 261.145,133.826 260.5,131.5C 264.488,128.558 268.821,127.891 273.5,129.5 Z"></path>
    </g>
    <g>
      <path fill="#eb5527" d="M 281.5,157.5 C 279.833,160.167 278.167,162.833 276.5,165.5C 271.941,156.713 267.608,147.713 263.5,138.5C 263.863,137.817 264.196,137.15 264.5,136.5C 267.306,134.83 269.806,135.163 272,137.5C 275.453,144.072 278.62,150.738 281.5,157.5 Z"></path>
    </g>
    <g>
      <path fill="#fe6d3c" d="M 232.5,166.5 C 236.677,174.192 240.344,182.192 243.5,190.5C 232.833,213.167 222.167,235.833 211.5,258.5C 204.313,258.825 197.313,258.491 190.5,257.5C 204.499,227.172 218.499,196.838 232.5,166.5 Z"></path>
    </g>
    <g>
      <path fill="#f05425" d="M 243.5,190.5 C 247.729,197.83 251.396,205.497 254.5,213.5C 247.771,228.625 240.771,243.625 233.5,258.5C 226.167,258.5 218.833,258.5 211.5,258.5C 222.167,235.833 232.833,213.167 243.5,190.5 Z"></path>
    </g>
    <g>
      <path fill="#f0efef" d="M 254.5,213.5 C 261.737,228.311 268.737,243.311 275.5,258.5C 261.5,258.5 247.5,258.5 233.5,258.5C 240.771,243.625 247.771,228.625 254.5,213.5 Z"></path>
    </g>
    <g>
      <path fill="#8d7e6b" d="M 190.5,257.5 C 197.313,258.491 204.313,258.825 211.5,258.5C 218.833,258.5 226.167,258.5 233.5,258.5C 231.052,259.473 228.385,259.806 225.5,259.5C 224.833,259.5 224.167,259.5 223.5,259.5C 220.833,259.5 218.167,259.5 215.5,259.5C 215.167,264.833 214.833,264.833 214.5,259.5C 211.5,259.5 208.5,259.5 205.5,259.5C 204.833,259.5 204.167,259.5 203.5,259.5C 198.637,259.819 193.97,259.486 189.5,258.5C 189.5,257.833 189.833,257.5 190.5,257.5 Z"></path>
    </g>
    <g>
      <path fill="#1ec4ca" d="M 189.5,258.5 C 193.97,259.486 198.637,259.819 203.5,259.5C 204.167,272.833 204.833,272.833 205.5,259.5C 208.5,259.5 211.5,259.5 214.5,259.5C 214.833,264.833 215.167,264.833 215.5,259.5C 218.167,259.5 220.833,259.5 223.5,259.5C 224.167,272.833 224.833,272.833 225.5,259.5C 228.385,259.806 231.052,259.473 233.5,258.5C 247.5,258.5 261.5,258.5 275.5,258.5C 275.833,258.5 276.167,258.5 276.5,258.5C 278.948,259.473 281.615,259.806 284.5,259.5C 284.833,272.833 285.167,272.833 285.5,259.5C 288.5,259.5 291.5,259.5 294.5,259.5C 294.833,266.167 295.167,266.167 295.5,259.5C 298.5,259.5 301.5,259.5 304.5,259.5C 304.833,272.833 305.167,272.833 305.5,259.5C 308.5,259.5 311.5,259.5 314.5,259.5C 314.833,266.167 315.167,266.167 315.5,259.5C 317.099,259.768 318.432,259.434 319.5,258.5C 338.5,258.5 357.5,258.5 376.5,258.5C 376.5,271.833 376.5,285.167 376.5,298.5C 363.833,298.5 351.167,298.5 338.5,298.5C 323.833,298.5 309.167,298.5 294.5,298.5C 267.833,298.5 241.167,298.5 214.5,298.5C 199.833,298.5 185.167,298.5 170.5,298.5C 158.833,298.5 147.167,298.5 135.5,298.5C 135.5,285.167 135.5,271.833 135.5,258.5C 153.5,258.5 171.5,258.5 189.5,258.5 Z"></path>
    </g>
    <g>
      <path fill="#245663" d="M 276.5,258.5 C 290.833,258.5 305.167,258.5 319.5,258.5C 318.432,259.434 317.099,259.768 315.5,259.5C 315.167,266.167 314.833,266.167 314.5,259.5C 311.5,259.5 308.5,259.5 305.5,259.5C 305.167,272.833 304.833,272.833 304.5,259.5C 301.5,259.5 298.5,259.5 295.5,259.5C 295.167,266.167 294.833,266.167 294.5,259.5C 291.5,259.5 288.5,259.5 285.5,259.5C 285.167,272.833 284.833,272.833 284.5,259.5C 281.615,259.806 278.948,259.473 276.5,258.5 Z"></path>
    </g>
    <g>
      <path fill="#1e717c" d="M 163.5,259.5 C 164.777,260.694 165.444,262.36 165.5,264.5C 165.167,266.167 164.833,267.833 164.5,269.5C 163.513,266.232 163.18,262.898 163.5,259.5 Z"></path>
    </g>
    <g>
      <path fill="#1e6874" d="M 183.5,259.5 C 184.777,260.694 185.444,262.36 185.5,264.5C 185.167,266.167 184.833,267.833 184.5,269.5C 183.513,266.232 183.18,262.898 183.5,259.5 Z"></path>
    </g>
    <g>
      <path fill="#1e6a76" d="M 203.5,259.5 C 204.167,259.5 204.833,259.5 205.5,259.5C 204.833,272.833 204.167,272.833 203.5,259.5 Z"></path>
    </g>
    <g>
      <path fill="#21606d" d="M 223.5,259.5 C 224.167,259.5 224.833,259.5 225.5,259.5C 224.833,272.833 224.167,272.833 223.5,259.5 Z"></path>
    </g>
    <g>
      <path fill="#f1f1f1" d="M 147.5,274.5 C 154.486,274.331 156.153,277.164 152.5,283C 145.416,283.475 143.749,280.642 147.5,274.5 Z"></path>
    </g>
    <g>
      <path fill="#b7e4e5" d="M 338.5,298.5 C 351.167,298.5 363.833,298.5 376.5,298.5C 364.167,299.167 351.833,299.833 339.5,300.5C 338.662,300.158 338.328,299.492 338.5,298.5 Z"></path>
    </g>
    <g>
      <path fill="#fd6e3c" d="M 170.5,298.5 C 185.167,298.5 199.833,298.5 214.5,298.5C 214.5,298.833 214.5,299.167 214.5,299.5C 206.913,299.186 199.413,299.519 192,300.5C 178.881,328.402 166.048,356.402 153.5,384.5C 146.903,382.535 140.903,379.535 135.5,375.5C 147.447,349.942 159.113,324.275 170.5,298.5 Z"></path>
    </g>
    <g>
      <path fill="#f15525" d="M 214.5,299.5 C 199.974,330.41 185.641,361.41 171.5,392.5C 164.97,390.899 158.97,388.233 153.5,384.5C 166.048,356.402 178.881,328.402 192,300.5C 199.413,299.519 206.913,299.186 214.5,299.5 Z"></path>
    </g>
    <g>
      <path fill="#252e3d" d="M 294.5,298.5 C 309.167,298.5 323.833,298.5 338.5,298.5C 338.328,299.492 338.662,300.158 339.5,300.5C 348.125,320.416 357.291,340.083 367,359.5C 367.49,360.793 367.657,362.127 367.5,363.5C 366.778,363.082 366.278,362.416 366,361.5C 354.539,366.813 343.372,372.48 332.5,378.5C 319.322,352.14 306.655,325.474 294.5,298.5 Z"></path>
    </g>
    <g>
      <path fill="#141b27" d="M 367.5,363.5 C 369.083,377.168 370.75,390.835 372.5,404.5C 372.167,405.833 371.833,407.167 371.5,408.5C 368.921,409.706 366.421,411.039 364,412.5C 353.294,401.297 342.794,389.963 332.5,378.5C 343.372,372.48 354.539,366.813 366,361.5C 366.278,362.416 366.778,363.082 367.5,363.5 Z"></path>
    </g>
    <g>
      <path fill="#cccac8" d="M 135.5,375.5 C 140.903,379.535 146.903,382.535 153.5,384.5C 158.97,388.233 164.97,390.899 171.5,392.5C 164.205,398.155 156.872,403.822 149.5,409.5C 145.5,407.833 141.5,406.167 137.5,404.5C 137.158,403.662 136.492,403.328 135.5,403.5C 135.43,393.919 135.43,384.585 135.5,375.5 Z"></path>
    </g>
    <g>
      <path fill="#293240" d="M 137.5,404.5 C 141.5,406.167 145.5,407.833 149.5,409.5C 145.817,413.18 141.817,416.514 137.5,419.5C 136.167,414.5 136.167,409.5 137.5,404.5 Z"></path>
    </g>
    <g>
      <path fill="#787c85" d="M 135.5,403.5 C 136.492,403.328 137.158,403.662 137.5,404.5C 136.167,409.5 136.167,414.5 137.5,419.5C 137.44,420.043 137.107,420.376 136.5,420.5C 135.505,414.872 135.171,409.206 135.5,403.5 Z"></path>
    </g>
  </symbol>
  <symbol xmlns="http://www.w3.org/2000/svg" version="1.1" xmlns:xlink="http://www.w3.org/1999/xlink" viewBox="0 0 512px 512px" id="appdevelopment">
    <g>
      <path fill="#fed45b" d="M 232.5,-0.5 C 247.833,-0.5 263.167,-0.5 278.5,-0.5C 368.144,10.3879 435.644,54.7213 481,132.5C 497.695,163.971 507.861,197.304 511.5,232.5C 511.5,247.833 511.5,263.167 511.5,278.5C 500.612,368.144 456.279,435.644 378.5,481C 347.029,497.695 313.696,507.861 278.5,511.5C 263.167,511.5 247.833,511.5 232.5,511.5C 142.856,500.612 75.3562,456.279 30,378.5C 13.3053,347.029 3.1386,313.696 -0.5,278.5C -0.5,263.167 -0.5,247.833 -0.5,232.5C 10.3875,142.857 54.7208,75.3573 132.5,30C 163.971,13.3053 197.304,3.1386 232.5,-0.5 Z"></path>
    </g>
    <g>
      <path fill="#ffeabb" d="M 292.5,114.5 C 239.5,114.5 186.5,114.5 133.5,114.5C 133.167,114.5 132.833,114.5 132.5,114.5C 132.5,108.5 132.5,102.5 132.5,96.5C 186.167,96.5 239.833,96.5 293.5,96.5C 293.823,102.69 293.49,108.69 292.5,114.5 Z"></path>
    </g>
    <g>
      <path fill="#fefffe" d="M 133.5,97.5 C 186.5,97.5 239.5,97.5 292.5,97.5C 292.5,102.833 292.5,108.167 292.5,113.5C 239.5,113.5 186.5,113.5 133.5,113.5C 133.5,108.167 133.5,102.833 133.5,97.5 Z"></path>
    </g>
    <g>
      <path fill="#ff9647" d="M 132.5,114.5 C 132.833,114.5 133.167,114.5 133.5,114.5C 133.5,185.833 133.5,257.167 133.5,328.5C 161.5,328.5 189.5,328.5 217.5,328.5C 217.5,328.833 217.5,329.167 217.5,329.5C 189.167,329.5 160.833,329.5 132.5,329.5C 132.5,257.833 132.5,186.167 132.5,114.5 Z"></path>
    </g>
    <g>
      <path fill="#fe6d3b" d="M 133.5,114.5 C 186.5,114.5 239.5,114.5 292.5,114.5C 292.5,120.833 292.5,127.167 292.5,133.5C 269.5,133.5 246.5,133.5 223.5,133.5C 200.167,133.5 176.833,133.5 153.5,133.5C 153.5,134.5 153.5,135.5 153.5,136.5C 175.167,137.167 196.833,137.833 218.5,138.5C 218.5,138.833 218.5,139.167 218.5,139.5C 205.5,139.5 192.5,139.5 179.5,139.5C 179.5,140.833 179.5,142.167 179.5,143.5C 192.167,143.5 204.833,143.5 217.5,143.5C 202.695,145.161 187.695,146.161 172.5,146.5C 172.5,147.5 172.5,148.5 172.5,149.5C 187.833,149.5 203.167,149.5 218.5,149.5C 218.5,157.833 218.5,166.167 218.5,174.5C 203.167,174.5 187.833,174.5 172.5,174.5C 172.5,175.5 172.5,176.5 172.5,177.5C 187.695,177.839 202.695,178.839 217.5,180.5C 202.5,180.5 187.5,180.5 172.5,180.5C 172.5,181.833 172.5,183.167 172.5,184.5C 187.833,184.5 203.167,184.5 218.5,184.5C 218.5,190.5 218.5,196.5 218.5,202.5C 203.167,202.5 187.833,202.5 172.5,202.5C 172.5,203.833 172.5,205.167 172.5,206.5C 187.5,206.5 202.5,206.5 217.5,206.5C 217.5,209.167 217.5,211.833 217.5,214.5C 206.654,214.172 195.987,214.506 185.5,215.5C 184.596,216.209 184.263,217.209 184.5,218.5C 195.833,218.5 207.167,218.5 218.5,218.5C 218.5,226.833 218.5,235.167 218.5,243.5C 203.5,243.5 188.5,243.5 173.5,243.5C 172.566,244.568 172.232,245.901 172.5,247.5C 187.5,247.5 202.5,247.5 217.5,247.5C 217.833,247.5 218.167,247.5 218.5,247.5C 218.5,253.5 218.5,259.5 218.5,265.5C 196.833,265.5 175.167,265.5 153.5,265.5C 153.5,266.833 153.5,268.167 153.5,269.5C 174.833,269.5 196.167,269.5 217.5,269.5C 217.5,272.167 217.5,274.833 217.5,277.5C 202.324,277.171 187.324,277.504 172.5,278.5C 172.5,279.5 172.5,280.5 172.5,281.5C 187.833,281.5 203.167,281.5 218.5,281.5C 218.5,282.5 218.5,283.5 218.5,284.5C 211.167,284.5 203.833,284.5 196.5,284.5C 195.566,285.568 195.232,286.901 195.5,288.5C 202.833,288.5 210.167,288.5 217.5,288.5C 217.5,294.5 217.5,300.5 217.5,306.5C 202.5,306.5 187.5,306.5 172.5,306.5C 172.5,307.5 172.5,308.5 172.5,309.5C 187.324,310.496 202.324,310.829 217.5,310.5C 217.5,316.5 217.5,322.5 217.5,328.5C 189.5,328.5 161.5,328.5 133.5,328.5C 133.5,257.167 133.5,185.833 133.5,114.5 Z"></path>
    </g>
    <g>
      <path fill="#fefefe" d="M 223.5,133.5 C 222.205,134.488 220.872,135.488 219.5,136.5C 197.5,136.5 175.5,136.5 153.5,136.5C 153.5,135.5 153.5,134.5 153.5,133.5C 176.833,133.5 200.167,133.5 223.5,133.5 Z"></path>
    </g>
    <g>
      <path fill="#262e3c" d="M 223.5,133.5 C 246.5,133.5 269.5,133.5 292.5,133.5C 318.835,133.333 345.169,133.5 371.5,134C 374.573,134.739 376.74,136.572 378,139.5C 378.667,212.5 378.667,285.5 378,358.5C 377.214,361.583 375.381,363.749 372.5,365C 322.833,365.667 273.167,365.667 223.5,365C 220.507,363.841 218.84,361.675 218.5,358.5C 218.5,342.167 218.5,325.833 218.5,309.5C 218.5,308.5 218.5,307.5 218.5,306.5C 218.5,300.167 218.5,293.833 218.5,287.5C 218.5,286.5 218.5,285.5 218.5,284.5C 218.5,283.5 218.5,282.5 218.5,281.5C 218.5,280.5 218.5,279.5 218.5,278.5C 218.5,275.5 218.5,272.5 218.5,269.5C 218.5,268.167 218.5,266.833 218.5,265.5C 218.5,259.5 218.5,253.5 218.5,247.5C 218.5,246.167 218.5,244.833 218.5,243.5C 218.5,235.167 218.5,226.833 218.5,218.5C 218.5,217.5 218.5,216.5 218.5,215.5C 218.5,212.5 218.5,209.5 218.5,206.5C 218.5,205.167 218.5,203.833 218.5,202.5C 218.5,196.5 218.5,190.5 218.5,184.5C 218.5,183.167 218.5,181.833 218.5,180.5C 218.5,179.5 218.5,178.5 218.5,177.5C 218.5,176.5 218.5,175.5 218.5,174.5C 218.5,166.167 218.5,157.833 218.5,149.5C 218.5,148.5 218.5,147.5 218.5,146.5C 218.5,145.5 218.5,144.5 218.5,143.5C 218.5,142.167 218.5,140.833 218.5,139.5C 218.5,139.167 218.5,138.833 218.5,138.5C 219.338,138.158 219.672,137.492 219.5,136.5C 220.872,135.488 222.205,134.488 223.5,133.5 Z"></path>
    </g>
    <g>
      <path fill="#fd9d7d" d="M 153.5,136.5 C 175.5,136.5 197.5,136.5 219.5,136.5C 219.672,137.492 219.338,138.158 218.5,138.5C 196.833,137.833 175.167,137.167 153.5,136.5 Z"></path>
    </g>
    <g>
      <path fill="#fccfbf" d="M 218.5,139.5 C 218.5,140.833 218.5,142.167 218.5,143.5C 218.167,143.5 217.833,143.5 217.5,143.5C 204.833,143.5 192.167,143.5 179.5,143.5C 179.5,142.167 179.5,140.833 179.5,139.5C 192.5,139.5 205.5,139.5 218.5,139.5 Z"></path>
    </g>
    <g>
      <path fill="#fefffe" d="M 180.5,140.5 C 192.851,140.168 205.185,140.501 217.5,141.5C 211.333,141.833 205.167,142.167 199,142.5C 192.462,142.496 186.295,141.83 180.5,140.5 Z"></path>
    </g>
    <g>
      <path fill="#c9caca" d="M 296.5,143.5 C 297.5,143.5 298.5,143.5 299.5,143.5C 299.5,144.5 299.5,145.5 299.5,146.5C 298.5,146.5 297.5,146.5 296.5,146.5C 296.5,145.5 296.5,144.5 296.5,143.5 Z"></path>
    </g>
    <g>
      <path fill="#f99e7f" d="M 217.5,143.5 C 217.833,143.5 218.167,143.5 218.5,143.5C 218.5,144.5 218.5,145.5 218.5,146.5C 203.167,146.5 187.833,146.5 172.5,146.5C 187.695,146.161 202.695,145.161 217.5,143.5 Z"></path>
    </g>
    <g>
      <path fill="#fcfcfc" d="M 172.5,146.5 C 187.833,146.5 203.167,146.5 218.5,146.5C 218.5,147.5 218.5,148.5 218.5,149.5C 203.167,149.5 187.833,149.5 172.5,149.5C 172.5,148.5 172.5,147.5 172.5,146.5 Z"></path>
    </g>
    <g>
      <path fill="#fffbfa" d="M 172.5,152.5 C 178.5,152.5 184.5,152.5 190.5,152.5C 190.5,153.5 190.5,154.5 190.5,155.5C 184.5,155.5 178.5,155.5 172.5,155.5C 172.5,154.5 172.5,153.5 172.5,152.5 Z"></path>
    </g>
    <g>
      <path fill="#c4c3c4" d="M 368.5,337.5 C 368.5,285.5 368.5,233.5 368.5,181.5C 321.5,181.5 274.5,181.5 227.5,181.5C 227.5,233.5 227.5,285.5 227.5,337.5C 226.335,277.335 226.168,217.001 227,156.5C 274.428,155.503 321.928,155.17 369.5,155.5C 369.832,216.336 369.499,277.002 368.5,337.5 Z"></path>
    </g>
    <g>
      <path fill="#ffae92" d="M 153.5,168.5 C 166.656,167.504 179.99,167.171 193.5,167.5C 193.768,169.099 193.434,170.432 192.5,171.5C 192.5,170.5 192.5,169.5 192.5,168.5C 179.5,168.5 166.5,168.5 153.5,168.5 Z"></path>
    </g>
    <g>
      <path fill="#fffcfb" d="M 153.5,168.5 C 166.5,168.5 179.5,168.5 192.5,168.5C 192.5,169.5 192.5,170.5 192.5,171.5C 179.5,171.5 166.5,171.5 153.5,171.5C 153.5,170.5 153.5,169.5 153.5,168.5 Z"></path>
    </g>
    <g>
      <path fill="#fcfcfc" d="M 218.5,174.5 C 218.5,175.5 218.5,176.5 218.5,177.5C 203.167,177.5 187.833,177.5 172.5,177.5C 172.5,176.5 172.5,175.5 172.5,174.5C 187.833,174.5 203.167,174.5 218.5,174.5 Z"></path>
    </g>
    <g>
      <path fill="#f9916d" d="M 172.5,177.5 C 187.833,177.5 203.167,177.5 218.5,177.5C 218.5,178.5 218.5,179.5 218.5,180.5C 218.167,180.5 217.833,180.5 217.5,180.5C 202.695,178.839 187.695,177.839 172.5,177.5 Z"></path>
    </g>
    <g>
      <path fill="#fefefe" d="M 368.5,337.5 C 321.5,337.5 274.5,337.5 227.5,337.5C 227.5,285.5 227.5,233.5 227.5,181.5C 274.5,181.5 321.5,181.5 368.5,181.5C 368.5,233.5 368.5,285.5 368.5,337.5 Z"></path>
    </g>
    <g>
      <path fill="#fccab9" d="M 217.5,180.5 C 217.833,180.5 218.167,180.5 218.5,180.5C 218.5,181.833 218.5,183.167 218.5,184.5C 203.167,184.5 187.833,184.5 172.5,184.5C 172.5,183.167 172.5,181.833 172.5,180.5C 187.5,180.5 202.5,180.5 217.5,180.5 Z"></path>
    </g>
    <g>
      <path fill="#fefffe" d="M 173.5,181.5 C 188.182,181.167 202.848,181.501 217.5,182.5C 210.167,182.833 202.833,183.167 195.5,183.5C 187.802,183.497 180.468,182.831 173.5,181.5 Z"></path>
    </g>
    <g>
      <path fill="#fe6d3a" d="M 233.5,187.5 C 242.5,187.5 251.5,187.5 260.5,187.5C 260.5,196.5 260.5,205.5 260.5,214.5C 260.5,205.5 260.5,196.5 260.5,187.5C 251.5,187.5 242.5,187.5 233.5,187.5 Z"></path>
    </g>
    <g>
      <path fill="#ffb197" d="M 232.5,187.5 C 241.986,186.506 251.652,186.173 261.5,186.5C 261.827,196.348 261.494,206.014 260.5,215.5C 260.5,215.167 260.5,214.833 260.5,214.5C 260.5,205.5 260.5,196.5 260.5,187.5C 251.5,187.5 242.5,187.5 233.5,187.5C 233.167,187.5 232.833,187.5 232.5,187.5 Z"></path>
    </g>
    <g>
      <path fill="#24d8de" d="M 266.5,187.5 C 275.833,187.5 285.167,187.5 294.5,187.5C 294.5,196.833 294.5,206.167 294.5,215.5C 294.5,206.167 294.5,196.833 294.5,187.5C 285.167,187.5 275.833,187.5 266.5,187.5 Z"></path>
    </g>
    <g>
      <path fill="#8ceaed" d="M 266.5,187.5 C 275.986,186.506 285.652,186.173 295.5,186.5C 295.827,196.348 295.494,206.014 294.5,215.5C 294.5,206.167 294.5,196.833 294.5,187.5C 285.167,187.5 275.833,187.5 266.5,187.5 Z"></path>
    </g>
    <g>
      <path fill="#ffd55d" d="M 300.5,187.5 C 309.833,187.5 319.167,187.5 328.5,187.5C 328.5,196.833 328.5,206.167 328.5,215.5C 328.5,206.167 328.5,196.833 328.5,187.5C 319.167,187.5 309.833,187.5 300.5,187.5 Z"></path>
    </g>
    <g>
      <path fill="#ffe8aa" d="M 300.5,187.5 C 309.986,186.506 319.652,186.173 329.5,186.5C 329.827,196.348 329.494,206.014 328.5,215.5C 328.5,206.167 328.5,196.833 328.5,187.5C 319.167,187.5 309.833,187.5 300.5,187.5 Z"></path>
    </g>
    <g>
      <path fill="#3d4958" d="M 335.5,187.5 C 344.5,187.5 353.5,187.5 362.5,187.5C 362.5,196.5 362.5,205.5 362.5,214.5C 362.5,205.5 362.5,196.5 362.5,187.5C 353.5,187.5 344.5,187.5 335.5,187.5 Z"></path>
    </g>
    <g>
      <path fill="#9ba1a9" d="M 334.5,187.5 C 343.986,186.506 353.652,186.173 363.5,186.5C 363.827,196.348 363.494,206.014 362.5,215.5C 362.5,215.167 362.5,214.833 362.5,214.5C 362.5,205.5 362.5,196.5 362.5,187.5C 353.5,187.5 344.5,187.5 335.5,187.5C 335.167,187.5 334.833,187.5 334.5,187.5 Z"></path>
    </g>
    <g>
      <path fill="#fefffe" d="M 153.5,196.5 C 174.5,196.5 195.5,196.5 216.5,196.5C 216.5,197.5 216.5,198.5 216.5,199.5C 195.5,199.5 174.5,199.5 153.5,199.5C 153.5,198.5 153.5,197.5 153.5,196.5 Z"></path>
    </g>
    <g>
      <path fill="#feebe4" d="M 218.5,202.5 C 218.5,203.833 218.5,205.167 218.5,206.5C 218.167,206.5 217.833,206.5 217.5,206.5C 202.5,206.5 187.5,206.5 172.5,206.5C 172.5,205.167 172.5,203.833 172.5,202.5C 187.833,202.5 203.167,202.5 218.5,202.5 Z"></path>
    </g>
    <g>
      <path fill="#ffb49a" d="M 172.5,209.5 C 179.313,208.509 186.313,208.175 193.5,208.5C 193.768,210.099 193.434,211.432 192.5,212.5C 192.5,211.5 192.5,210.5 192.5,209.5C 185.833,209.5 179.167,209.5 172.5,209.5 Z"></path>
    </g>
    <g>
      <path fill="#fffaf8" d="M 172.5,209.5 C 179.167,209.5 185.833,209.5 192.5,209.5C 192.5,210.5 192.5,211.5 192.5,212.5C 185.833,212.5 179.167,212.5 172.5,212.5C 172.5,211.5 172.5,210.5 172.5,209.5 Z"></path>
    </g>
    <g>
      <path fill="#ed7c56" d="M 217.5,206.5 C 217.833,206.5 218.167,206.5 218.5,206.5C 218.5,209.5 218.5,212.5 218.5,215.5C 207.5,215.5 196.5,215.5 185.5,215.5C 195.987,214.506 206.654,214.172 217.5,214.5C 217.5,211.833 217.5,209.167 217.5,206.5 Z"></path>
    </g>
    <g>
      <path fill="#ff845a" d="M 232.5,187.5 C 232.833,187.5 233.167,187.5 233.5,187.5C 233.5,196.5 233.5,205.5 233.5,214.5C 242.5,214.5 251.5,214.5 260.5,214.5C 260.5,214.833 260.5,215.167 260.5,215.5C 251.167,215.5 241.833,215.5 232.5,215.5C 232.5,206.167 232.5,196.833 232.5,187.5 Z"></path>
    </g>
    <g>
      <path fill="#5a6471" d="M 334.5,187.5 C 334.833,187.5 335.167,187.5 335.5,187.5C 335.5,196.5 335.5,205.5 335.5,214.5C 344.5,214.5 353.5,214.5 362.5,214.5C 362.5,214.833 362.5,215.167 362.5,215.5C 353.167,215.5 343.833,215.5 334.5,215.5C 334.5,206.167 334.5,196.833 334.5,187.5 Z"></path>
    </g>
    <g>
      <path fill="#fcfaf9" d="M 185.5,215.5 C 196.5,215.5 207.5,215.5 218.5,215.5C 218.5,216.5 218.5,217.5 218.5,218.5C 207.167,218.5 195.833,218.5 184.5,218.5C 184.263,217.209 184.596,216.209 185.5,215.5 Z"></path>
    </g>
    <g>
      <path fill="#ffd55d" d="M 232.5,221.5 C 241.833,221.5 251.167,221.5 260.5,221.5C 260.5,230.833 260.5,240.167 260.5,249.5C 260.5,240.167 260.5,230.833 260.5,221.5C 251.167,221.5 241.833,221.5 232.5,221.5 Z"></path>
    </g>
    <g>
      <path fill="#ffe8a8" d="M 232.5,221.5 C 241.986,220.506 251.652,220.173 261.5,220.5C 261.827,230.348 261.494,240.014 260.5,249.5C 260.5,240.167 260.5,230.833 260.5,221.5C 251.167,221.5 241.833,221.5 232.5,221.5 Z"></path>
    </g>
    <g>
      <path fill="#3d4958" d="M 267.5,221.5 C 276.5,221.5 285.5,221.5 294.5,221.5C 294.5,230.5 294.5,239.5 294.5,248.5C 294.5,239.5 294.5,230.5 294.5,221.5C 285.5,221.5 276.5,221.5 267.5,221.5 Z"></path>
    </g>
    <g>
      <path fill="#9aa0a8" d="M 266.5,221.5 C 275.986,220.506 285.652,220.173 295.5,220.5C 295.827,230.348 295.494,240.014 294.5,249.5C 294.5,249.167 294.5,248.833 294.5,248.5C 294.5,239.5 294.5,230.5 294.5,221.5C 285.5,221.5 276.5,221.5 267.5,221.5C 267.167,221.5 266.833,221.5 266.5,221.5 Z"></path>
    </g>
    <g>
      <path fill="#24d8de" d="M 300.5,221.5 C 309.833,221.5 319.167,221.5 328.5,221.5C 328.5,230.833 328.5,240.167 328.5,249.5C 328.5,240.167 328.5,230.833 328.5,221.5C 319.167,221.5 309.833,221.5 300.5,221.5 Z"></path>
    </g>
    <g>
      <path fill="#8ceaed" d="M 300.5,221.5 C 309.986,220.506 319.652,220.173 329.5,220.5C 329.827,230.348 329.494,240.014 328.5,249.5C 328.5,240.167 328.5,230.833 328.5,221.5C 319.167,221.5 309.833,221.5 300.5,221.5 Z"></path>
    </g>
    <g>
      <path fill="#fe6d3a" d="M 335.5,221.5 C 344.5,221.5 353.5,221.5 362.5,221.5C 362.5,230.5 362.5,239.5 362.5,248.5C 362.5,239.5 362.5,230.5 362.5,221.5C 353.5,221.5 344.5,221.5 335.5,221.5 Z"></path>
    </g>
    <g>
      <path fill="#ffb49a" d="M 334.5,221.5 C 343.986,220.506 353.652,220.173 363.5,220.5C 363.827,230.348 363.494,240.014 362.5,249.5C 362.5,249.167 362.5,248.833 362.5,248.5C 362.5,239.5 362.5,230.5 362.5,221.5C 353.5,221.5 344.5,221.5 335.5,221.5C 335.167,221.5 334.833,221.5 334.5,221.5 Z"></path>
    </g>
    <g>
      <path fill="#ffece5" d="M 172.5,221.5 C 181.833,221.5 191.167,221.5 200.5,221.5C 200.5,222.833 200.5,224.167 200.5,225.5C 191.167,225.5 181.833,225.5 172.5,225.5C 172.5,224.167 172.5,222.833 172.5,221.5 Z"></path>
    </g>
    <g>
      <path fill="#fffdfd" d="M 153.5,237.5 C 168.167,237.5 182.833,237.5 197.5,237.5C 197.5,238.5 197.5,239.5 197.5,240.5C 182.833,240.5 168.167,240.5 153.5,240.5C 153.5,239.5 153.5,238.5 153.5,237.5 Z"></path>
    </g>
    <g>
      <path fill="#fdf8f6" d="M 173.5,243.5 C 188.5,243.5 203.5,243.5 218.5,243.5C 218.5,244.833 218.5,246.167 218.5,247.5C 218.167,247.5 217.833,247.5 217.5,247.5C 203.01,246.504 188.343,246.171 173.5,246.5C 173.5,245.5 173.5,244.5 173.5,243.5 Z"></path>
    </g>
    <g>
      <path fill="#ffb69d" d="M 173.5,243.5 C 173.5,244.5 173.5,245.5 173.5,246.5C 188.343,246.171 203.01,246.504 217.5,247.5C 202.5,247.5 187.5,247.5 172.5,247.5C 172.232,245.901 172.566,244.568 173.5,243.5 Z"></path>
    </g>
    <g>
      <path fill="#5a6471" d="M 266.5,221.5 C 266.833,221.5 267.167,221.5 267.5,221.5C 267.5,230.5 267.5,239.5 267.5,248.5C 276.5,248.5 285.5,248.5 294.5,248.5C 294.5,248.833 294.5,249.167 294.5,249.5C 285.167,249.5 275.833,249.5 266.5,249.5C 266.5,240.167 266.5,230.833 266.5,221.5 Z"></path>
    </g>
    <g>
      <path fill="#ff8257" d="M 334.5,221.5 C 334.833,221.5 335.167,221.5 335.5,221.5C 335.5,230.5 335.5,239.5 335.5,248.5C 344.5,248.5 353.5,248.5 362.5,248.5C 362.5,248.833 362.5,249.167 362.5,249.5C 353.167,249.5 343.833,249.5 334.5,249.5C 334.5,240.167 334.5,230.833 334.5,221.5 Z"></path>
    </g>
    <g>
      <path fill="#ffbda6" d="M 206.5,250.5 C 195.5,250.5 184.5,250.5 173.5,250.5C 173.5,251.5 173.5,252.5 173.5,253.5C 172.566,252.432 172.232,251.099 172.5,249.5C 184.012,249.172 195.346,249.505 206.5,250.5 Z"></path>
    </g>
    <g>
      <path fill="#fff7f5" d="M 206.5,250.5 C 206.5,251.5 206.5,252.5 206.5,253.5C 195.5,253.5 184.5,253.5 173.5,253.5C 173.5,252.5 173.5,251.5 173.5,250.5C 184.5,250.5 195.5,250.5 206.5,250.5 Z"></path>
    </g>
    <g>
      <path fill="#fe6d3a" d="M 267.5,255.5 C 276.5,255.5 285.5,255.5 294.5,255.5C 294.5,264.5 294.5,273.5 294.5,282.5C 294.5,273.5 294.5,264.5 294.5,255.5C 285.5,255.5 276.5,255.5 267.5,255.5 Z"></path>
    </g>
    <g>
      <path fill="#ffb298" d="M 266.5,255.5 C 275.986,254.506 285.652,254.173 295.5,254.5C 295.827,264.348 295.494,274.014 294.5,283.5C 294.5,283.167 294.5,282.833 294.5,282.5C 294.5,273.5 294.5,264.5 294.5,255.5C 285.5,255.5 276.5,255.5 267.5,255.5C 267.167,255.5 266.833,255.5 266.5,255.5 Z"></path>
    </g>
    <g>
      <path fill="#cdcccb" d="M 300.5,254.5 C 310.167,254.5 319.833,254.5 329.5,254.5C 329.5,264.167 329.5,273.833 329.5,283.5C 319.833,283.5 310.167,283.5 300.5,283.5C 300.5,273.833 300.5,264.167 300.5,254.5 Z"></path>
    </g>
    <g>
      <path fill="#ffd55d" d="M 334.5,255.5 C 343.833,255.5 353.167,255.5 362.5,255.5C 362.5,264.833 362.5,274.167 362.5,283.5C 362.5,274.167 362.5,264.833 362.5,255.5C 353.167,255.5 343.833,255.5 334.5,255.5 Z"></path>
    </g>
    <g>
      <path fill="#ffe9ab" d="M 334.5,255.5 C 343.986,254.506 353.652,254.173 363.5,254.5C 363.827,264.348 363.494,274.014 362.5,283.5C 362.5,274.167 362.5,264.833 362.5,255.5C 353.167,255.5 343.833,255.5 334.5,255.5 Z"></path>
    </g>
    <g>
      <path fill="#ffebe4" d="M 218.5,265.5 C 218.5,266.833 218.5,268.167 218.5,269.5C 218.167,269.5 217.833,269.5 217.5,269.5C 196.167,269.5 174.833,269.5 153.5,269.5C 153.5,268.167 153.5,266.833 153.5,265.5C 175.167,265.5 196.833,265.5 218.5,265.5 Z"></path>
    </g>
    <g>
      <path fill="#ffbfab" d="M 172.5,272.5 C 180.65,271.507 188.983,271.174 197.5,271.5C 197.768,273.099 197.434,274.432 196.5,275.5C 196.5,274.5 196.5,273.5 196.5,272.5C 188.5,272.5 180.5,272.5 172.5,272.5 Z"></path>
    </g>
    <g>
      <path fill="#fff6f3" d="M 172.5,272.5 C 180.5,272.5 188.5,272.5 196.5,272.5C 196.5,273.5 196.5,274.5 196.5,275.5C 188.5,275.5 180.5,275.5 172.5,275.5C 172.5,274.5 172.5,273.5 172.5,272.5 Z"></path>
    </g>
    <g>
      <path fill="#f08664" d="M 217.5,269.5 C 217.833,269.5 218.167,269.5 218.5,269.5C 218.5,272.5 218.5,275.5 218.5,278.5C 203.167,278.5 187.833,278.5 172.5,278.5C 187.324,277.504 202.324,277.171 217.5,277.5C 217.5,274.833 217.5,272.167 217.5,269.5 Z"></path>
    </g>
    <g>
      <path fill="#fcfcfc" d="M 172.5,278.5 C 187.833,278.5 203.167,278.5 218.5,278.5C 218.5,279.5 218.5,280.5 218.5,281.5C 203.167,281.5 187.833,281.5 172.5,281.5C 172.5,280.5 172.5,279.5 172.5,278.5 Z"></path>
    </g>
    <g>
      <path fill="#ff8358" d="M 266.5,255.5 C 266.833,255.5 267.167,255.5 267.5,255.5C 267.5,264.5 267.5,273.5 267.5,282.5C 276.5,282.5 285.5,282.5 294.5,282.5C 294.5,282.833 294.5,283.167 294.5,283.5C 285.167,283.5 275.833,283.5 266.5,283.5C 266.5,274.167 266.5,264.833 266.5,255.5 Z"></path>
    </g>
    <g>
      <path fill="#fcf9f9" d="M 196.5,284.5 C 203.833,284.5 211.167,284.5 218.5,284.5C 218.5,285.5 218.5,286.5 218.5,287.5C 211.167,287.5 203.833,287.5 196.5,287.5C 196.5,286.5 196.5,285.5 196.5,284.5 Z"></path>
    </g>
    <g>
      <path fill="#e19178" d="M 196.5,284.5 C 196.5,285.5 196.5,286.5 196.5,287.5C 203.833,287.5 211.167,287.5 218.5,287.5C 218.5,293.833 218.5,300.167 218.5,306.5C 218.167,306.5 217.833,306.5 217.5,306.5C 217.5,300.5 217.5,294.5 217.5,288.5C 210.167,288.5 202.833,288.5 195.5,288.5C 195.232,286.901 195.566,285.568 196.5,284.5 Z"></path>
    </g>
    <g>
      <path fill="#ff9b79" d="M 153.5,300.5 C 172.659,299.503 191.993,299.17 211.5,299.5C 211.768,301.099 211.434,302.432 210.5,303.5C 210.5,302.5 210.5,301.5 210.5,300.5C 191.5,300.5 172.5,300.5 153.5,300.5 Z"></path>
    </g>
    <g>
      <path fill="#fefffe" d="M 153.5,300.5 C 172.5,300.5 191.5,300.5 210.5,300.5C 210.5,301.5 210.5,302.5 210.5,303.5C 191.5,303.5 172.5,303.5 153.5,303.5C 153.5,302.5 153.5,301.5 153.5,300.5 Z"></path>
    </g>
    <g>
      <path fill="#ff703f" d="M 232.5,303.5 C 242.167,303.5 251.833,303.5 261.5,303.5C 261.5,312.833 261.5,322.167 261.5,331.5C 251.833,331.5 242.167,331.5 232.5,331.5C 232.5,322.167 232.5,312.833 232.5,303.5 Z"></path>
    </g>
    <g>
      <path fill="#cdcccb" d="M 266.5,303.5 C 276.167,303.5 285.833,303.5 295.5,303.5C 295.5,312.833 295.5,322.167 295.5,331.5C 285.833,331.5 276.167,331.5 266.5,331.5C 266.5,322.167 266.5,312.833 266.5,303.5 Z"></path>
    </g>
    <g>
      <path fill="#fdfbfb" d="M 217.5,306.5 C 217.833,306.5 218.167,306.5 218.5,306.5C 218.5,307.5 218.5,308.5 218.5,309.5C 203.167,309.5 187.833,309.5 172.5,309.5C 172.5,308.5 172.5,307.5 172.5,306.5C 187.5,306.5 202.5,306.5 217.5,306.5 Z"></path>
    </g>
    <g>
      <path fill="#bd7a57" d="M 172.5,309.5 C 187.833,309.5 203.167,309.5 218.5,309.5C 218.5,325.833 218.5,342.167 218.5,358.5C 217.506,349.014 217.173,339.348 217.5,329.5C 217.5,329.167 217.5,328.833 217.5,328.5C 217.5,322.5 217.5,316.5 217.5,310.5C 202.324,310.829 187.324,310.496 172.5,309.5 Z"></path>
    </g>
    <g>
      <path fill="#3c4757" d="M 287.5,347.5 C 294.841,347.334 302.174,347.5 309.5,348C 311.013,350.916 310.68,353.582 308.5,356C 301.5,356.667 294.5,356.667 287.5,356C 284.899,353.17 284.899,350.337 287.5,347.5 Z"></path>
    </g>
    <g>
      <path fill="#fcc25b" d="M 378.5,381.5 C 378.167,381.5 377.833,381.5 377.5,381.5C 374.167,381.5 370.833,381.5 367.5,381.5C 366.5,381.5 365.5,381.5 364.5,381.5C 361.167,381.5 357.833,381.5 354.5,381.5C 353.833,381.5 353.167,381.5 352.5,381.5C 349.167,381.5 345.833,381.5 342.5,381.5C 341.833,381.5 341.167,381.5 340.5,381.5C 337.167,381.5 333.833,381.5 330.5,381.5C 329.5,381.5 328.5,381.5 327.5,381.5C 324.5,381.5 321.5,381.5 318.5,381.5C 318.795,383.735 318.461,385.735 317.5,387.5C 317.975,384.918 317.308,382.918 315.5,381.5C 312.167,381.5 308.833,381.5 305.5,381.5C 304.833,381.5 304.167,381.5 303.5,381.5C 300.167,381.5 296.833,381.5 293.5,381.5C 292.833,381.5 292.167,381.5 291.5,381.5C 288.167,381.5 284.833,381.5 281.5,381.5C 280.5,381.5 279.5,381.5 278.5,381.5C 275.5,381.5 272.5,381.5 269.5,381.5C 269.795,383.735 269.461,385.735 268.5,387.5C 268.975,384.918 268.308,382.918 266.5,381.5C 263.167,381.5 259.833,381.5 256.5,381.5C 255.833,381.5 255.167,381.5 254.5,381.5C 251.167,381.5 247.833,381.5 244.5,381.5C 242.692,382.918 242.025,384.918 242.5,387.5C 241.539,385.735 241.205,383.735 241.5,381.5C 238.5,381.5 235.5,381.5 232.5,381.5C 231.5,381.5 230.5,381.5 229.5,381.5C 226.167,381.5 222.833,381.5 219.5,381.5C 218.833,381.5 218.167,381.5 217.5,381.5C 214.167,381.5 210.833,381.5 207.5,381.5C 206.833,381.5 206.167,381.5 205.5,381.5C 202.167,381.5 198.833,381.5 195.5,381.5C 193.692,382.918 193.025,384.918 193.5,387.5C 192.539,385.735 192.205,383.735 192.5,381.5C 189.5,381.5 186.5,381.5 183.5,381.5C 182.5,381.5 181.5,381.5 180.5,381.5C 177.167,381.5 173.833,381.5 170.5,381.5C 169.833,381.5 169.167,381.5 168.5,381.5C 165.167,381.5 161.833,381.5 158.5,381.5C 157.833,381.5 157.167,381.5 156.5,381.5C 153.167,381.5 149.833,381.5 146.5,381.5C 144.692,382.918 144.025,384.918 144.5,387.5C 143.539,385.735 143.205,383.735 143.5,381.5C 221.833,380.167 300.167,380.167 378.5,381.5 Z"></path>
    </g>
    <g>
      <path fill="#f78e3d" d="M 133.5,381.5 C 133.5,392.167 133.5,402.833 133.5,413.5C 214.833,413.5 296.167,413.5 377.5,413.5C 377.5,402.833 377.5,392.167 377.5,381.5C 377.833,381.5 378.167,381.5 378.5,381.5C 378.5,392.5 378.5,403.5 378.5,414.5C 296.5,414.5 214.5,414.5 132.5,414.5C 132.172,403.321 132.505,392.321 133.5,381.5 Z"></path>
    </g>
    <g>
      <path fill="#f15424" d="M 133.5,381.5 C 136.833,381.5 140.167,381.5 143.5,381.5C 143.205,383.735 143.539,385.735 144.5,387.5C 146.308,386.082 146.975,384.082 146.5,381.5C 149.833,381.5 153.167,381.5 156.5,381.5C 157.167,389.5 157.833,389.5 158.5,381.5C 161.833,381.5 165.167,381.5 168.5,381.5C 169.167,389.5 169.833,389.5 170.5,381.5C 173.833,381.5 177.167,381.5 180.5,381.5C 180.5,383.5 180.5,385.5 180.5,387.5C 181.5,387.5 182.5,387.5 183.5,387.5C 183.5,385.5 183.5,383.5 183.5,381.5C 186.5,381.5 189.5,381.5 192.5,381.5C 192.205,383.735 192.539,385.735 193.5,387.5C 195.308,386.082 195.975,384.082 195.5,381.5C 198.833,381.5 202.167,381.5 205.5,381.5C 206.167,389.5 206.833,389.5 207.5,381.5C 210.833,381.5 214.167,381.5 217.5,381.5C 218.167,389.5 218.833,389.5 219.5,381.5C 222.833,381.5 226.167,381.5 229.5,381.5C 229.5,383.5 229.5,385.5 229.5,387.5C 230.5,387.5 231.5,387.5 232.5,387.5C 232.5,385.5 232.5,383.5 232.5,381.5C 235.5,381.5 238.5,381.5 241.5,381.5C 241.205,383.735 241.539,385.735 242.5,387.5C 244.308,386.082 244.975,384.082 244.5,381.5C 247.833,381.5 251.167,381.5 254.5,381.5C 255.167,389.5 255.833,389.5 256.5,381.5C 259.833,381.5 263.167,381.5 266.5,381.5C 266.025,384.082 266.692,386.082 268.5,387.5C 269.461,385.735 269.795,383.735 269.5,381.5C 272.5,381.5 275.5,381.5 278.5,381.5C 278.5,383.5 278.5,385.5 278.5,387.5C 279.5,387.5 280.5,387.5 281.5,387.5C 281.5,385.5 281.5,383.5 281.5,381.5C 284.833,381.5 288.167,381.5 291.5,381.5C 292.167,389.5 292.833,389.5 293.5,381.5C 296.833,381.5 300.167,381.5 303.5,381.5C 304.167,389.5 304.833,389.5 305.5,381.5C 308.833,381.5 312.167,381.5 315.5,381.5C 315.025,384.082 315.692,386.082 317.5,387.5C 318.461,385.735 318.795,383.735 318.5,381.5C 321.5,381.5 324.5,381.5 327.5,381.5C 327.5,383.5 327.5,385.5 327.5,387.5C 328.5,387.5 329.5,387.5 330.5,387.5C 330.5,385.5 330.5,383.5 330.5,381.5C 333.833,381.5 337.167,381.5 340.5,381.5C 341.167,389.5 341.833,389.5 342.5,381.5C 345.833,381.5 349.167,381.5 352.5,381.5C 353.167,389.5 353.833,389.5 354.5,381.5C 357.833,381.5 361.167,381.5 364.5,381.5C 364.5,383.5 364.5,385.5 364.5,387.5C 365.5,387.5 366.5,387.5 367.5,387.5C 367.5,385.5 367.5,383.5 367.5,381.5C 370.833,381.5 374.167,381.5 377.5,381.5C 377.5,392.167 377.5,402.833 377.5,413.5C 296.167,413.5 214.833,413.5 133.5,413.5C 133.5,402.833 133.5,392.167 133.5,381.5 Z"></path>
    </g>
    <g>
      <path fill="#fecd58" d="M 143.5,392.5 C 148.283,392.449 150.45,394.782 150,399.5C 147.294,402.978 144.294,403.311 141,400.5C 140.023,397.183 140.856,394.516 143.5,392.5 Z"></path>
    </g>
    <g>
      <path fill="#fedfd6" d="M 364.5,381.5 C 365.5,381.5 366.5,381.5 367.5,381.5C 367.5,383.5 367.5,385.5 367.5,387.5C 366.5,387.5 365.5,387.5 364.5,387.5C 364.5,385.5 364.5,383.5 364.5,381.5 Z"></path>
    </g>
    <g>
      <path fill="#fefdfd" d="M 352.5,381.5 C 353.167,381.5 353.833,381.5 354.5,381.5C 353.833,389.5 353.167,389.5 352.5,381.5 Z"></path>
    </g>
    <g>
      <path fill="#fef7f6" d="M 340.5,381.5 C 341.167,381.5 341.833,381.5 342.5,381.5C 341.833,389.5 341.167,389.5 340.5,381.5 Z"></path>
    </g>
    <g>
      <path fill="#fedfd6" d="M 327.5,381.5 C 328.5,381.5 329.5,381.5 330.5,381.5C 330.5,383.5 330.5,385.5 330.5,387.5C 329.5,387.5 328.5,387.5 327.5,387.5C 327.5,385.5 327.5,383.5 327.5,381.5 Z"></path>
    </g>
    <g>
      <path fill="#fef5f2" d="M 315.5,381.5 C 317.308,382.918 317.975,384.918 317.5,387.5C 315.692,386.082 315.025,384.082 315.5,381.5 Z"></path>
    </g>
    <g>
      <path fill="#fefdfd" d="M 303.5,381.5 C 304.167,381.5 304.833,381.5 305.5,381.5C 304.833,389.5 304.167,389.5 303.5,381.5 Z"></path>
    </g>
    <g>
      <path fill="#fef5f3" d="M 291.5,381.5 C 292.167,381.5 292.833,381.5 293.5,381.5C 292.833,389.5 292.167,389.5 291.5,381.5 Z"></path>
    </g>
    <g>
      <path fill="#fedfd6" d="M 278.5,381.5 C 279.5,381.5 280.5,381.5 281.5,381.5C 281.5,383.5 281.5,385.5 281.5,387.5C 280.5,387.5 279.5,387.5 278.5,387.5C 278.5,385.5 278.5,383.5 278.5,381.5 Z"></path>
    </g>
    <g>
      <path fill="#fef6f4" d="M 266.5,381.5 C 268.308,382.918 268.975,384.918 268.5,387.5C 266.692,386.082 266.025,384.082 266.5,381.5 Z"></path>
    </g>
    <g>
      <path fill="#fefdfd" d="M 254.5,381.5 C 255.167,381.5 255.833,381.5 256.5,381.5C 255.833,389.5 255.167,389.5 254.5,381.5 Z"></path>
    </g>
    <g>
      <path fill="#fdefeb" d="M 244.5,381.5 C 244.975,384.082 244.308,386.082 242.5,387.5C 242.025,384.918 242.692,382.918 244.5,381.5 Z"></path>
    </g>
    <g>
      <path fill="#fedfd6" d="M 229.5,381.5 C 230.5,381.5 231.5,381.5 232.5,381.5C 232.5,383.5 232.5,385.5 232.5,387.5C 231.5,387.5 230.5,387.5 229.5,387.5C 229.5,385.5 229.5,383.5 229.5,381.5 Z"></path>
    </g>
    <g>
      <path fill="#fef9f8" d="M 217.5,381.5 C 218.167,381.5 218.833,381.5 219.5,381.5C 218.833,389.5 218.167,389.5 217.5,381.5 Z"></path>
    </g>
    <g>
      <path fill="#fefdfd" d="M 205.5,381.5 C 206.167,381.5 206.833,381.5 207.5,381.5C 206.833,389.5 206.167,389.5 205.5,381.5 Z"></path>
    </g>
    <g>
      <path fill="#fdede8" d="M 195.5,381.5 C 195.975,384.082 195.308,386.082 193.5,387.5C 193.025,384.918 193.692,382.918 195.5,381.5 Z"></path>
    </g>
    <g>
      <path fill="#fedfd6" d="M 180.5,381.5 C 181.5,381.5 182.5,381.5 183.5,381.5C 183.5,383.5 183.5,385.5 183.5,387.5C 182.5,387.5 181.5,387.5 180.5,387.5C 180.5,385.5 180.5,383.5 180.5,381.5 Z"></path>
    </g>
    <g>
      <path fill="#fefcfb" d="M 168.5,381.5 C 169.167,381.5 169.833,381.5 170.5,381.5C 169.833,389.5 169.167,389.5 168.5,381.5 Z"></path>
    </g>
    <g>
      <path fill="#fefdfd" d="M 156.5,381.5 C 157.167,381.5 157.833,381.5 158.5,381.5C 157.833,389.5 157.167,389.5 156.5,381.5 Z"></path>
    </g>
    <g>
      <path fill="#fde7e0" d="M 146.5,381.5 C 146.975,384.082 146.308,386.082 144.5,387.5C 144.025,384.918 144.692,382.918 146.5,381.5 Z"></path>
    </g>
  </symbol>
  <symbol xmlns="http://www.w3.org/2000/svg" version="1.1" xmlns:xlink="http://www.w3.org/1999/xlink" viewBox="0 0 512px 512px" id="stationery">
    <g>
      <path fill="#3d4959" d="M 232.5,-0.5 C 247.833,-0.5 263.167,-0.5 278.5,-0.5C 368.144,10.3879 435.644,54.7213 481,132.5C 497.695,163.971 507.861,197.304 511.5,232.5C 511.5,247.833 511.5,263.167 511.5,278.5C 500.612,368.144 456.279,435.644 378.5,481C 347.029,497.695 313.696,507.861 278.5,511.5C 263.167,511.5 247.833,511.5 232.5,511.5C 142.856,500.612 75.3562,456.279 30,378.5C 13.3053,347.029 3.1386,313.696 -0.5,278.5C -0.5,263.167 -0.5,247.833 -0.5,232.5C 10.3875,142.857 54.7208,75.3573 132.5,30C 163.971,13.3053 197.304,3.1386 232.5,-0.5 Z"></path>
    </g>
    <g>
      <path fill="#65d2d7" d="M 328.5,102.5 C 264.833,102.5 201.167,102.5 137.5,102.5C 137.5,122.167 137.5,141.833 137.5,161.5C 201.167,161.5 264.833,161.5 328.5,161.5C 328.5,161.833 328.5,162.167 328.5,162.5C 264.833,162.5 201.167,162.5 137.5,162.5C 137.167,162.5 136.833,162.5 136.5,162.5C 136.5,142.167 136.5,121.833 136.5,101.5C 200.669,101.168 264.669,101.501 328.5,102.5 Z"></path>
    </g>
    <g>
      <path fill="#22d8de" d="M 328.5,102.5 C 328.5,122.167 328.5,141.833 328.5,161.5C 264.833,161.5 201.167,161.5 137.5,161.5C 137.5,141.833 137.5,122.167 137.5,102.5C 201.167,102.5 264.833,102.5 328.5,102.5 Z"></path>
    </g>
    <g>
      <path fill="#97ecf0" d="M 306.5,112.5 C 274.167,112.5 241.833,112.5 209.5,112.5C 209.5,114.833 209.5,117.167 209.5,119.5C 241.833,119.5 274.167,119.5 306.5,119.5C 274.004,120.498 241.338,120.832 208.5,120.5C 208.5,117.5 208.5,114.5 208.5,111.5C 241.338,111.168 274.004,111.502 306.5,112.5 Z"></path>
    </g>
    <g>
      <path fill="#fdfefe" d="M 160.5,112.5 C 180.999,111.2 189.165,120.533 185,140.5C 179.563,149.989 171.397,153.489 160.5,151C 149.566,145.963 145.399,137.463 148,125.5C 150.353,119.315 154.52,114.982 160.5,112.5 Z"></path>
    </g>
    <g>
      <path fill="#fefffe" d="M 306.5,112.5 C 306.5,114.833 306.5,117.167 306.5,119.5C 274.167,119.5 241.833,119.5 209.5,119.5C 209.5,117.167 209.5,114.833 209.5,112.5C 241.833,112.5 274.167,112.5 306.5,112.5 Z"></path>
    </g>
    <g>
      <path fill="#5c9199" d="M 166.5,121.5 C 167.492,121.328 168.158,121.662 168.5,122.5C 167.167,128.833 167.167,135.167 168.5,141.5C 168.158,142.338 167.492,142.672 166.5,142.5C 166.5,135.5 166.5,128.5 166.5,121.5 Z"></path>
    </g>
    <g>
      <path fill="#3bdae0" d="M 166.5,121.5 C 166.5,128.5 166.5,135.5 166.5,142.5C 162.702,139.204 159.036,135.704 155.5,132C 159.036,128.296 162.702,124.796 166.5,121.5 Z"></path>
    </g>
    <g>
      <path fill="#2e3645" d="M 168.5,122.5 C 172.012,125.178 175.012,128.345 177.5,132C 175.012,135.655 172.012,138.822 168.5,141.5C 167.167,135.167 167.167,128.833 168.5,122.5 Z"></path>
    </g>
    <g>
      <path fill="#242d3c" d="M 243.5,132.5 C 243.5,133.167 243.5,133.833 243.5,134.5C 198.167,133.833 198.167,133.167 243.5,132.5 Z"></path>
    </g>
    <g>
      <path fill="#22818c" d="M 243.5,132.5 C 198.167,133.167 198.167,133.833 243.5,134.5C 232.012,135.495 220.345,135.828 208.5,135.5C 208.5,134.167 208.5,132.833 208.5,131.5C 220.345,131.172 232.012,131.505 243.5,132.5 Z"></path>
    </g>
    <g>
      <path fill="#242e3d" d="M 208.5,140.5 C 220.167,140.5 231.833,140.5 243.5,140.5C 243.5,141.5 243.5,142.5 243.5,143.5C 231.833,143.5 220.167,143.5 208.5,143.5C 208.5,142.5 208.5,141.5 208.5,140.5 Z"></path>
    </g>
    <g>
      <path fill="#237e88" d="M 208.5,148.5 C 214.5,148.5 220.5,148.5 226.5,148.5C 226.5,149.833 226.5,151.167 226.5,152.5C 220.5,152.5 214.5,152.5 208.5,152.5C 208.5,151.167 208.5,149.833 208.5,148.5 Z"></path>
    </g>
    <g>
      <path fill="#242d3c" d="M 209.5,149.5 C 214.875,149.172 220.208,149.505 225.5,150.5C 222.833,150.833 220.167,151.167 217.5,151.5C 214.41,151.478 211.743,150.812 209.5,149.5 Z"></path>
    </g>
    <g>
      <path fill="#fdfdfd" d="M 137.5,162.5 C 201.167,162.5 264.833,162.5 328.5,162.5C 328.5,184.167 328.5,205.833 328.5,227.5C 323.5,227.5 318.5,227.5 313.5,227.5C 313.5,248.5 313.5,269.5 313.5,290.5C 318.5,290.5 323.5,290.5 328.5,290.5C 328.5,298.5 328.5,306.5 328.5,314.5C 301.995,314.169 275.661,314.502 249.5,315.5C 249.5,334.5 249.5,353.5 249.5,372.5C 212.167,372.5 174.833,372.5 137.5,372.5C 137.5,302.5 137.5,232.5 137.5,162.5 Z"></path>
    </g>
    <g>
      <path fill="#2ad9de" d="M 170.5,184.5 C 212.167,184.5 253.833,184.5 295.5,184.5C 295.5,187.167 295.5,189.833 295.5,192.5C 253.833,192.5 212.167,192.5 170.5,192.5C 170.5,189.833 170.5,187.167 170.5,184.5 Z"></path>
    </g>
    <g>
      <path fill="#656c76" d="M 170.5,205.5 C 211.997,204.501 253.663,204.168 295.5,204.5C 295.737,205.791 295.404,206.791 294.5,207.5C 253.513,205.506 212.18,204.839 170.5,205.5 Z"></path>
    </g>
    <g>
      <path fill="#242d3c" d="M 170.5,205.5 C 212.18,204.839 253.513,205.506 294.5,207.5C 252.82,208.161 211.487,207.494 170.5,205.5 Z"></path>
    </g>
    <g>
      <path fill="#fbfbfb" d="M 120.5,216.5 C 115.167,216.5 109.833,216.5 104.5,216.5C 105.547,213.404 106.88,210.404 108.5,207.5C 111.167,206.167 113.833,206.167 116.5,207.5C 118.12,210.404 119.453,213.404 120.5,216.5 Z"></path>
    </g>
    <g>
      <path fill="#2d3544" d="M 170.5,213.5 C 211.833,213.5 253.167,213.5 294.5,213.5C 294.5,214.5 294.5,215.5 294.5,216.5C 253.167,216.5 211.833,216.5 170.5,216.5C 170.5,215.5 170.5,214.5 170.5,213.5 Z"></path>
    </g>
    <g>
      <path fill="#22d7dd" d="M 103.5,217.5 C 106.5,217.5 109.5,217.5 112.5,217.5C 112.5,274.167 112.5,330.833 112.5,387.5C 115.385,387.194 118.052,387.527 120.5,388.5C 114.833,388.5 109.167,388.5 103.5,388.5C 103.5,331.5 103.5,274.5 103.5,217.5 Z"></path>
    </g>
    <g>
      <path fill="#0eaeb4" d="M 103.5,217.5 C 103.5,216.833 103.833,216.5 104.5,216.5C 109.833,216.5 115.167,216.5 120.5,216.5C 121.499,273.664 121.832,330.998 121.5,388.5C 121.167,388.5 120.833,388.5 120.5,388.5C 118.052,387.527 115.385,387.194 112.5,387.5C 112.5,330.833 112.5,274.167 112.5,217.5C 109.5,217.5 106.5,217.5 103.5,217.5 Z"></path>
    </g>
    <g>
      <path fill="#6f757f" d="M 170.5,222.5 C 211.997,221.501 253.663,221.168 295.5,221.5C 295.737,222.791 295.404,223.791 294.5,224.5C 253.513,222.506 212.18,221.839 170.5,222.5 Z"></path>
    </g>
    <g>
      <path fill="#242d3c" d="M 170.5,222.5 C 212.18,221.839 253.513,222.506 294.5,224.5C 252.82,225.161 211.487,224.494 170.5,222.5 Z"></path>
    </g>
    <g>
      <path fill="#14b3b9" d="M 328.5,227.5 C 354.328,228.498 380.328,228.831 406.5,228.5C 406.5,248.833 406.5,269.167 406.5,289.5C 380.328,289.169 354.328,289.502 328.5,290.5C 323.5,290.5 318.5,290.5 313.5,290.5C 313.5,269.5 313.5,248.5 313.5,227.5C 318.5,227.5 323.5,227.5 328.5,227.5 Z"></path>
    </g>
    <g>
      <path fill="#0ea5ac" d="M 328.5,227.5 C 354.833,227.5 381.167,227.5 407.5,227.5C 407.5,248.5 407.5,269.5 407.5,290.5C 381.167,290.5 354.833,290.5 328.5,290.5C 354.328,289.502 380.328,289.169 406.5,289.5C 406.5,269.167 406.5,248.833 406.5,228.5C 380.328,228.831 354.328,228.498 328.5,227.5 Z"></path>
    </g>
    <g>
      <path fill="#293241" d="M 170.5,230.5 C 211.833,230.5 253.167,230.5 294.5,230.5C 294.5,231.5 294.5,232.5 294.5,233.5C 253.167,233.5 211.833,233.5 170.5,233.5C 170.5,232.5 170.5,231.5 170.5,230.5 Z"></path>
    </g>
    <g>
      <path fill="#fcfefe" d="M 355.5,237.5 C 375.907,238.016 383.407,248.016 378,267.5C 370.926,277.444 361.759,279.944 350.5,275C 339.304,265.935 337.804,255.435 346,243.5C 349.147,241.35 352.313,239.35 355.5,237.5 Z"></path>
    </g>
    <g>
      <path fill="#797f88" d="M 170.5,239.5 C 211.997,238.501 253.663,238.168 295.5,238.5C 295.737,239.791 295.404,240.791 294.5,241.5C 253.513,239.506 212.18,238.839 170.5,239.5 Z"></path>
    </g>
    <g>
      <path fill="#242d3c" d="M 170.5,239.5 C 212.18,238.839 253.513,239.506 294.5,241.5C 252.82,242.161 211.487,241.494 170.5,239.5 Z"></path>
    </g>
    <g>
      <path fill="#262f3e" d="M 170.5,247.5 C 211.833,247.5 253.167,247.5 294.5,247.5C 294.5,248.5 294.5,249.5 294.5,250.5C 253.167,250.5 211.833,250.5 170.5,250.5C 170.5,249.5 170.5,248.5 170.5,247.5 Z"></path>
    </g>
    <g>
      <path fill="#38dae0" d="M 360.5,246.5 C 360.5,253.833 360.5,261.167 360.5,268.5C 356.521,265.188 352.854,261.521 349.5,257.5C 352.854,253.479 356.521,249.812 360.5,246.5 Z"></path>
    </g>
    <g>
      <path fill="#2f3846" d="M 360.5,246.5 C 364.479,249.812 368.146,253.479 371.5,257.5C 368.146,261.521 364.479,265.188 360.5,268.5C 360.5,261.167 360.5,253.833 360.5,246.5 Z"></path>
    </g>
    <g>
      <path fill="#242d3c" d="M 208.5,256.5 C 272.5,257.167 272.5,257.833 208.5,258.5C 208.5,257.833 208.5,257.167 208.5,256.5 Z"></path>
    </g>
    <g>
      <path fill="#94989f" d="M 208.5,256.5 C 224.658,255.504 240.991,255.17 257.5,255.5C 257.5,256.833 257.5,258.167 257.5,259.5C 240.991,259.83 224.658,259.496 208.5,258.5C 272.5,257.833 272.5,257.167 208.5,256.5 Z"></path>
    </g>
    <g>
      <path fill="#caeeef" d="M 383.5,280.5 C 389.868,280.17 396.202,280.504 402.5,281.5C 399.333,281.833 396.167,282.167 393,282.5C 389.424,282.485 386.258,281.818 383.5,280.5 Z"></path>
    </g>
    <g>
      <path fill="#21d7dd" d="M 249.5,315.5 C 252.5,317.5 255.5,319.5 258.5,321.5C 274.512,336.177 290.845,350.51 307.5,364.5C 307.489,366.017 306.823,367.184 305.5,368C 286.951,381.764 268.285,395.264 249.5,408.5C 249.5,396.833 249.5,385.167 249.5,373.5C 249.5,373.167 249.5,372.833 249.5,372.5C 249.5,353.5 249.5,334.5 249.5,315.5 Z"></path>
    </g>
    <g>
      <path fill="#1ab7bb" d="M 258.5,321.5 C 277.175,335.169 295.842,348.836 314.5,362.5C 311.796,362.67 310.129,364.003 309.5,366.5C 308.833,365.833 308.167,365.167 307.5,364.5C 290.845,350.51 274.512,336.177 258.5,321.5 Z"></path>
    </g>
    <g>
      <path fill="#13a9ae" d="M 314.5,362.5 C 319.137,365.824 323.804,369.157 328.5,372.5C 333.196,369.157 337.863,365.824 342.5,362.5C 345.204,362.67 346.871,364.003 347.5,366.5C 341.186,371.81 334.853,377.144 328.5,382.5C 322.147,377.144 315.814,371.81 309.5,366.5C 310.129,364.003 311.796,362.67 314.5,362.5 Z"></path>
    </g>
    <g>
      <path fill="#16c5cb" d="M 249.5,315.5 C 275.661,314.502 301.995,314.169 328.5,314.5C 354.833,314.5 381.167,314.5 407.5,314.5C 407.5,346.167 407.5,377.833 407.5,409.5C 354.664,409.832 301.997,409.499 249.5,408.5C 268.285,395.264 286.951,381.764 305.5,368C 306.823,367.184 307.489,366.017 307.5,364.5C 308.167,365.167 308.833,365.833 309.5,366.5C 315.814,371.81 322.147,377.144 328.5,382.5C 334.853,377.144 341.186,371.81 347.5,366.5C 348.167,365.833 348.833,365.167 349.5,364.5C 349.511,366.017 350.177,367.184 351.5,368C 369.36,381.36 387.36,394.527 405.5,407.5C 406.833,377.167 406.833,346.833 405.5,316.5C 403.408,318.605 401.075,320.272 398.5,321.5C 379.825,335.169 361.158,348.836 342.5,362.5C 337.863,365.824 333.196,369.157 328.5,372.5C 323.804,369.157 319.137,365.824 314.5,362.5C 295.842,348.836 277.175,335.169 258.5,321.5C 255.5,319.5 252.5,317.5 249.5,315.5 Z"></path>
    </g>
    <g>
      <path fill="#1ab7bb" d="M 398.5,321.5 C 382.488,336.177 366.155,350.51 349.5,364.5C 348.833,365.167 348.167,365.833 347.5,366.5C 346.871,364.003 345.204,362.67 342.5,362.5C 361.158,348.836 379.825,335.169 398.5,321.5 Z"></path>
    </g>
    <g>
      <path fill="#20d7dd" d="M 349.5,364.5 C 366.155,350.51 382.488,336.177 398.5,321.5C 401.075,320.272 403.408,318.605 405.5,316.5C 406.833,346.833 406.833,377.167 405.5,407.5C 387.36,394.527 369.36,381.36 351.5,368C 350.177,367.184 349.511,366.017 349.5,364.5 Z"></path>
    </g>
    <g>
      <path fill="#8b919a" d="M 136.5,162.5 C 136.833,162.5 137.167,162.5 137.5,162.5C 137.5,232.5 137.5,302.5 137.5,372.5C 174.833,372.5 212.167,372.5 249.5,372.5C 249.5,372.833 249.5,373.167 249.5,373.5C 211.833,373.5 174.167,373.5 136.5,373.5C 136.5,303.167 136.5,232.833 136.5,162.5 Z"></path>
    </g>
    <g>
      <path fill="#f5fbfc" d="M 103.5,388.5 C 109.167,388.5 114.833,388.5 120.5,388.5C 120.833,388.5 121.167,388.5 121.5,388.5C 121.5,390.5 121.5,392.5 121.5,394.5C 118.5,394.5 115.5,394.5 112.5,394.5C 109.5,394.5 106.5,394.5 103.5,394.5C 103.5,392.5 103.5,390.5 103.5,388.5 Z"></path>
    </g>
    <g>
      <path fill="#20d5db" d="M 103.5,394.5 C 106.5,394.5 109.5,394.5 112.5,394.5C 112.5,399.5 112.5,404.5 112.5,409.5C 109.5,409.5 106.5,409.5 103.5,409.5C 103.5,404.5 103.5,399.5 103.5,394.5 Z"></path>
    </g>
    <g>
      <path fill="#0cacb2" d="M 112.5,394.5 C 115.5,394.5 118.5,394.5 121.5,394.5C 121.5,399.5 121.5,404.5 121.5,409.5C 118.5,409.5 115.5,409.5 112.5,409.5C 112.5,404.5 112.5,399.5 112.5,394.5 Z"></path>
    </g>
  </symbol>
  <symbol xmlns="http://www.w3.org/2000/svg" version="1.1" xmlns:xlink="http://www.w3.org/1999/xlink" viewBox="0 0 512px 512px" id="graphicdesign">
    <g>
      <path fill="#fe6d3b" d="M 232.5,-0.5 C 247.833,-0.5 263.167,-0.5 278.5,-0.5C 368.144,10.3879 435.644,54.7213 481,132.5C 497.695,163.971 507.861,197.304 511.5,232.5C 511.5,247.833 511.5,263.167 511.5,278.5C 500.612,368.144 456.279,435.644 378.5,481C 347.029,497.695 313.696,507.861 278.5,511.5C 263.167,511.5 247.833,511.5 232.5,511.5C 142.856,500.612 75.3562,456.279 30,378.5C 13.3053,347.029 3.1386,313.696 -0.5,278.5C -0.5,263.167 -0.5,247.833 -0.5,232.5C 10.3875,142.857 54.7208,75.3573 132.5,30C 163.971,13.3053 197.304,3.1386 232.5,-0.5 Z"></path>
    </g>
    <g>
      <path fill="#242d3c" d="M 387.5,131.5 C 401.389,132.726 410.056,140.06 413.5,153.5C 413.832,204.003 413.499,254.336 412.5,304.5C 408.089,293.094 399.756,287.094 387.5,286.5C 387.5,243.833 387.5,201.167 387.5,158.5C 387.5,149.5 387.5,140.5 387.5,131.5 Z"></path>
    </g>
    <g>
      <path fill="#cb5d3b" d="M 126.5,158.5 C 116.833,158.5 107.167,158.5 97.5,158.5C 97.5,160.5 97.5,162.5 97.5,164.5C 97.1667,164.5 96.8333,164.5 96.5,164.5C 96.5,162.167 96.5,159.833 96.5,157.5C 106.681,157.173 116.681,157.506 126.5,158.5 Z"></path>
    </g>
    <g>
      <path fill="#f7855e" d="M 387.5,131.5 C 387.5,140.5 387.5,149.5 387.5,158.5C 307.833,158.5 228.167,158.5 148.5,158.5C 227.665,157.501 306.998,157.167 386.5,157.5C 386.174,148.651 386.507,139.984 387.5,131.5 Z"></path>
    </g>
    <g>
      <path fill="#262e3c" d="M 126.5,158.5 C 126.5,232.167 126.5,305.833 126.5,379.5C 116.5,379.5 106.5,379.5 96.5,379.5C 96.5,377.5 96.5,375.5 96.5,373.5C 99.1667,373.5 101.833,373.5 104.5,373.5C 105.404,372.791 105.737,371.791 105.5,370.5C 102.833,370.5 100.167,370.5 97.5,370.5C 97.5,369.167 97.5,367.833 97.5,366.5C 99.099,366.768 100.432,366.434 101.5,365.5C 100.817,363.824 99.4832,363.157 97.5,363.5C 97.5,361.833 97.5,360.167 97.5,358.5C 100.247,358.813 102.914,358.48 105.5,357.5C 102.572,356.516 99.5719,356.183 96.5,356.5C 96.5,354.833 96.5,353.167 96.5,351.5C 98.1667,351.5 99.8333,351.5 101.5,351.5C 101.5,350.5 101.5,349.5 101.5,348.5C 99.8333,348.5 98.1667,348.5 96.5,348.5C 96.5,346.833 96.5,345.167 96.5,343.5C 108.5,342.833 108.5,342.167 96.5,341.5C 96.5,339.833 96.5,338.167 96.5,336.5C 103.167,335.833 103.167,335.167 96.5,334.5C 96.5,332.833 96.5,331.167 96.5,329.5C 99.5,329.5 102.5,329.5 105.5,329.5C 105.5,328.5 105.5,327.5 105.5,326.5C 102.833,326.5 100.167,326.5 97.5,326.5C 97.5,324.833 97.5,323.167 97.5,321.5C 98.9778,321.762 100.311,321.429 101.5,320.5C 99.9547,319.548 98.288,319.215 96.5,319.5C 96.5,317.833 96.5,316.167 96.5,314.5C 99.1667,314.5 101.833,314.5 104.5,314.5C 105.404,313.791 105.737,312.791 105.5,311.5C 102.833,311.5 100.167,311.5 97.5,311.5C 97.5,310.167 97.5,308.833 97.5,307.5C 98.8333,307.5 100.167,307.5 101.5,307.5C 101.5,306.5 101.5,305.5 101.5,304.5C 99.8333,304.5 98.1667,304.5 96.5,304.5C 96.5,302.833 96.5,301.167 96.5,299.5C 108.5,298.833 108.5,298.167 96.5,297.5C 96.5,295.833 96.5,294.167 96.5,292.5C 98.1667,292.5 99.8333,292.5 101.5,292.5C 101.5,291.5 101.5,290.5 101.5,289.5C 99.8333,289.5 98.1667,289.5 96.5,289.5C 96.5,287.833 96.5,286.167 96.5,284.5C 108.5,283.833 108.5,283.167 96.5,282.5C 96.5,280.833 96.5,279.167 96.5,277.5C 103.167,276.833 103.167,276.167 96.5,275.5C 96.5,273.833 96.5,272.167 96.5,270.5C 99.5,270.5 102.5,270.5 105.5,270.5C 105.5,269.5 105.5,268.5 105.5,267.5C 102.833,267.5 100.167,267.5 97.5,267.5C 97.5,265.833 97.5,264.167 97.5,262.5C 98.9778,262.762 100.311,262.429 101.5,261.5C 99.9547,260.548 98.288,260.215 96.5,260.5C 96.5,258.833 96.5,257.167 96.5,255.5C 99.1667,255.5 101.833,255.5 104.5,255.5C 105.404,254.791 105.737,253.791 105.5,252.5C 102.833,252.5 100.167,252.5 97.5,252.5C 97.5,251.167 97.5,249.833 97.5,248.5C 98.8333,248.5 100.167,248.5 101.5,248.5C 101.5,247.5 101.5,246.5 101.5,245.5C 99.8333,245.5 98.1667,245.5 96.5,245.5C 96.5,243.833 96.5,242.167 96.5,240.5C 108.5,239.833 108.5,239.167 96.5,238.5C 96.5,236.833 96.5,235.167 96.5,233.5C 98.1667,233.5 99.8333,233.5 101.5,233.5C 101.5,232.5 101.5,231.5 101.5,230.5C 99.7085,230.366 98.0418,230.699 96.5,231.5C 96.5,229.5 96.5,227.5 96.5,225.5C 108.5,224.833 108.5,224.167 96.5,223.5C 96.5,221.833 96.5,220.167 96.5,218.5C 103.167,217.833 103.167,217.167 96.5,216.5C 96.5,214.833 96.5,213.167 96.5,211.5C 99.5,211.5 102.5,211.5 105.5,211.5C 105.5,210.5 105.5,209.5 105.5,208.5C 102.833,208.5 100.167,208.5 97.5,208.5C 97.5,206.833 97.5,205.167 97.5,203.5C 98.9778,203.762 100.311,203.429 101.5,202.5C 99.9547,201.548 98.288,201.215 96.5,201.5C 96.5,199.833 96.5,198.167 96.5,196.5C 99.1667,196.5 101.833,196.5 104.5,196.5C 105.404,195.791 105.737,194.791 105.5,193.5C 102.833,193.5 100.167,193.5 97.5,193.5C 97.5,192.167 97.5,190.833 97.5,189.5C 98.8333,189.5 100.167,189.5 101.5,189.5C 101.5,188.5 101.5,187.5 101.5,186.5C 99.8333,186.5 98.1667,186.5 96.5,186.5C 96.5,184.833 96.5,183.167 96.5,181.5C 108.5,180.833 108.5,180.167 96.5,179.5C 96.5,177.833 96.5,176.167 96.5,174.5C 98.1667,174.5 99.8333,174.5 101.5,174.5C 101.5,173.5 101.5,172.5 101.5,171.5C 99.8333,171.5 98.1667,171.5 96.5,171.5C 96.5,169.833 96.5,168.167 96.5,166.5C 99.5719,166.817 102.572,166.484 105.5,165.5C 102.914,164.52 100.247,164.187 97.5,164.5C 97.5,162.5 97.5,160.5 97.5,158.5C 107.167,158.5 116.833,158.5 126.5,158.5 Z"></path>
    </g>
    <g>
      <path fill="#fefdfd" d="M 148.5,158.5 C 228.167,158.5 307.833,158.5 387.5,158.5C 387.5,201.167 387.5,243.833 387.5,286.5C 399.756,287.094 408.089,293.094 412.5,304.5C 413.36,308.434 413.693,312.434 413.5,316.5C 411.453,329.715 403.786,337.548 390.5,340C 309.834,340.5 229.167,340.667 148.5,340.5C 148.5,279.833 148.5,219.167 148.5,158.5 Z"></path>
    </g>
    <g>
      <path fill="#8b6f6c" d="M 413.5,153.5 C 414.833,207.833 414.833,262.167 413.5,316.5C 413.693,312.434 413.36,308.434 412.5,304.5C 413.499,254.336 413.832,204.003 413.5,153.5 Z"></path>
    </g>
    <g>
      <path fill="#e5e2e3" d="M 96.5,164.5 C 96.8333,164.5 97.1667,164.5 97.5,164.5C 100.247,164.187 102.914,164.52 105.5,165.5C 102.572,166.484 99.5719,166.817 96.5,166.5C 96.5,165.833 96.5,165.167 96.5,164.5 Z"></path>
    </g>
    <g>
      <path fill="#bababd" d="M 96.5,171.5 C 98.1667,171.5 99.8333,171.5 101.5,171.5C 101.5,172.5 101.5,173.5 101.5,174.5C 99.8333,174.5 98.1667,174.5 96.5,174.5C 96.5,173.5 96.5,172.5 96.5,171.5 Z"></path>
    </g>
    <g>
      <path fill="#f1eeee" d="M 96.5,179.5 C 108.5,180.167 108.5,180.833 96.5,181.5C 96.5,180.833 96.5,180.167 96.5,179.5 Z"></path>
    </g>
    <g>
      <path fill="#2a3342" d="M 216.5,196.5 C 205.167,196.5 193.833,196.5 182.5,196.5C 182.5,192.5 182.5,188.5 182.5,184.5C 193.833,184.5 205.167,184.5 216.5,184.5C 216.5,188.5 216.5,192.5 216.5,196.5 Z"></path>
    </g>
    <g>
      <path fill="#988d8f" d="M 96.5,186.5 C 98.1667,186.5 99.8333,186.5 101.5,186.5C 101.5,187.5 101.5,188.5 101.5,189.5C 100.167,189.5 98.8333,189.5 97.5,189.5C 97.5,190.833 97.5,192.167 97.5,193.5C 100.167,193.5 102.833,193.5 105.5,193.5C 105.737,194.791 105.404,195.791 104.5,196.5C 102.365,194.631 99.6981,193.964 96.5,194.5C 96.5,191.833 96.5,189.167 96.5,186.5 Z"></path>
    </g>
    <g>
      <path fill="#e0dcdd" d="M 96.5,194.5 C 99.6981,193.964 102.365,194.631 104.5,196.5C 101.833,196.5 99.1667,196.5 96.5,196.5C 96.5,195.833 96.5,195.167 96.5,194.5 Z"></path>
    </g>
    <g>
      <path fill="#d9d9d9" d="M 182.5,196.5 C 193.833,196.5 205.167,196.5 216.5,196.5C 211.695,197.487 206.695,197.821 201.5,197.5C 201.5,201.167 201.5,204.833 201.5,208.5C 200.5,208.5 199.5,208.5 198.5,208.5C 198.5,204.833 198.5,201.167 198.5,197.5C 192.974,197.821 187.64,197.488 182.5,196.5 Z"></path>
    </g>
    <g>
      <path fill="#86e1e4" d="M 198.5,208.5 C 199.5,208.5 200.5,208.5 201.5,208.5C 229.167,208.5 256.833,208.5 284.5,208.5C 284.5,208.833 284.5,209.167 284.5,209.5C 250.833,209.5 217.167,209.5 183.5,209.5C 183.5,213.5 183.5,217.5 183.5,221.5C 182.515,217.366 182.182,213.032 182.5,208.5C 187.833,208.5 193.167,208.5 198.5,208.5 Z"></path>
    </g>
    <g>
      <path fill="#1fc7cd" d="M 284.5,209.5 C 284.5,213.5 284.5,217.5 284.5,221.5C 250.833,221.5 217.167,221.5 183.5,221.5C 183.5,217.5 183.5,213.5 183.5,209.5C 217.167,209.5 250.833,209.5 284.5,209.5 Z"></path>
    </g>
    <g>
      <path fill="#252e3d" d="M 318.5,209.5 C 318.5,213.167 318.5,216.833 318.5,220.5C 307.5,220.5 296.5,220.5 285.5,220.5C 285.5,216.833 285.5,213.167 285.5,209.5C 296.5,209.5 307.5,209.5 318.5,209.5 Z"></path>
    </g>
    <g>
      <path fill="#2fc8cd" d="M 318.5,208.5 C 330.167,208.5 341.833,208.5 353.5,208.5C 353.5,212.833 353.5,217.167 353.5,221.5C 341.833,221.5 330.167,221.5 318.5,221.5C 318.5,221.167 318.5,220.833 318.5,220.5C 318.5,216.833 318.5,213.167 318.5,209.5C 318.5,209.167 318.5,208.833 318.5,208.5 Z"></path>
    </g>
    <g>
      <path fill="#beb4b4" d="M 96.5,201.5 C 98.288,201.215 99.9547,201.548 101.5,202.5C 100.311,203.429 98.9778,203.762 97.5,203.5C 97.5,205.167 97.5,206.833 97.5,208.5C 100.167,208.5 102.833,208.5 105.5,208.5C 105.5,209.5 105.5,210.5 105.5,211.5C 102.5,211.5 99.5,211.5 96.5,211.5C 96.5,208.167 96.5,204.833 96.5,201.5 Z"></path>
    </g>
    <g>
      <path fill="#c3c6ca" d="M 314.5,214.5 C 305.766,213.865 297.433,214.532 289.5,216.5C 288.596,215.791 288.263,214.791 288.5,213.5C 297.349,213.174 306.016,213.507 314.5,214.5 Z"></path>
    </g>
    <g>
      <path fill="#f1fbfb" d="M 187.5,213.5 C 195.833,213.5 204.167,213.5 212.5,213.5C 212.5,214.5 212.5,215.5 212.5,216.5C 204.167,216.5 195.833,216.5 187.5,216.5C 187.5,215.5 187.5,214.5 187.5,213.5 Z"></path>
    </g>
    <g>
      <path fill="#f1fbfb" d="M 221.5,213.5 C 229.833,213.5 238.167,213.5 246.5,213.5C 246.5,214.5 246.5,215.5 246.5,216.5C 238.167,216.5 229.833,216.5 221.5,216.5C 221.5,215.5 221.5,214.5 221.5,213.5 Z"></path>
    </g>
    <g>
      <path fill="#f1fbfb" d="M 255.5,213.5 C 263.833,213.5 272.167,213.5 280.5,213.5C 280.5,214.5 280.5,215.5 280.5,216.5C 272.167,216.5 263.833,216.5 255.5,216.5C 255.5,215.5 255.5,214.5 255.5,213.5 Z"></path>
    </g>
    <g>
      <path fill="#fefffe" d="M 314.5,214.5 C 306.567,216.468 298.234,217.135 289.5,216.5C 297.433,214.532 305.766,213.865 314.5,214.5 Z"></path>
    </g>
    <g>
      <path fill="#f1fbfb" d="M 323.5,213.5 C 331.833,213.5 340.167,213.5 348.5,213.5C 348.5,214.5 348.5,215.5 348.5,216.5C 340.167,216.5 331.833,216.5 323.5,216.5C 323.5,215.5 323.5,214.5 323.5,213.5 Z"></path>
    </g>
    <g>
      <path fill="#e6e2e2" d="M 96.5,216.5 C 103.167,217.167 103.167,217.833 96.5,218.5C 96.5,217.833 96.5,217.167 96.5,216.5 Z"></path>
    </g>
    <g>
      <path fill="#35606b" d="M 284.5,208.5 C 295.833,208.5 307.167,208.5 318.5,208.5C 318.5,208.833 318.5,209.167 318.5,209.5C 307.5,209.5 296.5,209.5 285.5,209.5C 285.5,213.167 285.5,216.833 285.5,220.5C 296.5,220.5 307.5,220.5 318.5,220.5C 318.5,220.833 318.5,221.167 318.5,221.5C 307.167,221.5 295.833,221.5 284.5,221.5C 284.5,217.5 284.5,213.5 284.5,209.5C 284.5,209.167 284.5,208.833 284.5,208.5 Z"></path>
    </g>
    <g>
      <path fill="#e4e2e3" d="M 96.5,223.5 C 108.5,224.167 108.5,224.833 96.5,225.5C 96.5,224.833 96.5,224.167 96.5,223.5 Z"></path>
    </g>
    <g>
      <path fill="#bebbbd" d="M 96.5,233.5 C 96.5,232.833 96.5,232.167 96.5,231.5C 98.0418,230.699 99.7085,230.366 101.5,230.5C 101.5,231.5 101.5,232.5 101.5,233.5C 99.8333,233.5 98.1667,233.5 96.5,233.5 Z"></path>
    </g>
    <g>
      <path fill="#ff855c" d="M 216.5,234.5 C 227.654,233.505 238.988,233.172 250.5,233.5C 250.5,241.833 250.5,250.167 250.5,258.5C 238.988,258.828 227.654,258.495 216.5,257.5C 227.5,257.5 238.5,257.5 249.5,257.5C 249.5,249.833 249.5,242.167 249.5,234.5C 238.5,234.5 227.5,234.5 216.5,234.5 Z"></path>
    </g>
    <g>
      <path fill="#fb6836" d="M 216.5,234.5 C 227.5,234.5 238.5,234.5 249.5,234.5C 249.5,242.167 249.5,249.833 249.5,257.5C 238.5,257.5 227.5,257.5 216.5,257.5C 216.5,249.833 216.5,242.167 216.5,234.5 Z"></path>
    </g>
    <g>
      <path fill="#25c8cd" d="M 284.5,233.5 C 295.833,233.5 307.167,233.5 318.5,233.5C 318.5,245.833 318.5,258.167 318.5,270.5C 307.167,270.5 295.833,270.5 284.5,270.5C 284.5,258.167 284.5,245.833 284.5,233.5 Z"></path>
    </g>
    <g>
      <path fill="#293241" d="M 335.5,233.5 C 346.833,233.5 358.167,233.5 369.5,233.5C 369.5,245.833 369.5,258.167 369.5,270.5C 358.167,270.5 346.833,270.5 335.5,270.5C 335.5,258.167 335.5,245.833 335.5,233.5 Z"></path>
    </g>
    <g>
      <path fill="#f1eeee" d="M 96.5,238.5 C 108.5,239.167 108.5,239.833 96.5,240.5C 96.5,239.833 96.5,239.167 96.5,238.5 Z"></path>
    </g>
    <g>
      <path fill="#effbfb" d="M 289.5,238.5 C 292.167,238.5 294.833,238.5 297.5,238.5C 297.5,239.5 297.5,240.5 297.5,241.5C 294.833,241.5 292.167,241.5 289.5,241.5C 289.5,240.5 289.5,239.5 289.5,238.5 Z"></path>
    </g>
    <g>
      <path fill="#d5f4f5" d="M 301.5,238.5 C 305.833,238.5 310.167,238.5 314.5,238.5C 314.5,239.5 314.5,240.5 314.5,241.5C 310.167,241.5 305.833,241.5 301.5,241.5C 301.5,240.5 301.5,239.5 301.5,238.5 Z"></path>
    </g>
    <g>
      <path fill="#f3fcfc" d="M 289.5,250.5 C 297.833,250.5 306.167,250.5 314.5,250.5C 314.5,251.5 314.5,252.5 314.5,253.5C 306.167,253.5 297.833,253.5 289.5,253.5C 289.5,252.5 289.5,251.5 289.5,250.5 Z"></path>
    </g>
    <g>
      <path fill="#988d8f" d="M 96.5,245.5 C 98.1667,245.5 99.8333,245.5 101.5,245.5C 101.5,246.5 101.5,247.5 101.5,248.5C 100.167,248.5 98.8333,248.5 97.5,248.5C 97.5,249.833 97.5,251.167 97.5,252.5C 100.167,252.5 102.833,252.5 105.5,252.5C 105.737,253.791 105.404,254.791 104.5,255.5C 102.365,253.631 99.6981,252.964 96.5,253.5C 96.5,250.833 96.5,248.167 96.5,245.5 Z"></path>
    </g>
    <g>
      <path fill="#dfdbdc" d="M 96.5,253.5 C 99.6981,252.964 102.365,253.631 104.5,255.5C 101.833,255.5 99.1667,255.5 96.5,255.5C 96.5,254.833 96.5,254.167 96.5,253.5 Z"></path>
    </g>
    <g>
      <path fill="#fefffe" d="M 289.5,263.5 C 295.206,263.171 300.872,263.505 306.5,264.5C 303.667,264.833 300.833,265.167 298,265.5C 294.748,265.481 291.915,264.814 289.5,263.5 Z"></path>
    </g>
    <g>
      <path fill="#bfb4b4" d="M 96.5,260.5 C 98.288,260.215 99.9547,260.548 101.5,261.5C 100.311,262.429 98.9778,262.762 97.5,262.5C 97.5,264.167 97.5,265.833 97.5,267.5C 100.167,267.5 102.833,267.5 105.5,267.5C 105.5,268.5 105.5,269.5 105.5,270.5C 102.5,270.5 99.5,270.5 96.5,270.5C 96.5,267.167 96.5,263.833 96.5,260.5 Z"></path>
    </g>
    <g>
      <path fill="#273040" d="M 216.5,271.5 C 227.5,271.5 238.5,271.5 249.5,271.5C 249.5,283.5 249.5,295.5 249.5,307.5C 238.5,307.5 227.5,307.5 216.5,307.5C 216.5,295.5 216.5,283.5 216.5,271.5 Z"></path>
    </g>
    <g>
      <path fill="#444c59" d="M 216.5,271.5 C 216.5,271.167 216.5,270.833 216.5,270.5C 227.833,270.5 239.167,270.5 250.5,270.5C 250.829,283.011 250.495,295.345 249.5,307.5C 249.5,295.5 249.5,283.5 249.5,271.5C 238.5,271.5 227.5,271.5 216.5,271.5 Z"></path>
    </g>
    <g>
      <path fill="#e6e1e1" d="M 96.5,275.5 C 103.167,276.167 103.167,276.833 96.5,277.5C 96.5,276.833 96.5,276.167 96.5,275.5 Z"></path>
    </g>
    <g>
      <path fill="#e6e3e4" d="M 96.5,282.5 C 108.5,283.167 108.5,283.833 96.5,284.5C 96.5,283.833 96.5,283.167 96.5,282.5 Z"></path>
    </g>
    <g>
      <path fill="#ffa889" d="M 200.5,287.5 C 200.5,288.5 200.5,289.5 200.5,290.5C 200.5,292.167 200.5,293.833 200.5,295.5C 188.833,295.5 177.167,295.5 165.5,295.5C 165.5,291.167 165.5,286.833 165.5,282.5C 177.167,282.5 188.833,282.5 200.5,282.5C 200.5,284.167 200.5,285.833 200.5,287.5 Z"></path>
    </g>
    <g>
      <path fill="#fea485" d="M 369.5,283.5 C 358.5,283.5 347.5,283.5 336.5,283.5C 336.5,291.5 336.5,299.5 336.5,307.5C 335.507,299.35 335.174,291.017 335.5,282.5C 347.012,282.172 358.346,282.505 369.5,283.5 Z"></path>
    </g>
    <g>
      <path fill="#fe6c3a" d="M 166.5,283.5 C 177.5,283.5 188.5,283.5 199.5,283.5C 199.5,287.167 199.5,290.833 199.5,294.5C 188.5,294.5 177.5,294.5 166.5,294.5C 166.5,290.833 166.5,287.167 166.5,283.5 Z"></path>
    </g>
    <g>
      <path fill="#32cacf" d="M 284.5,282.5 C 296.167,282.5 307.833,282.5 319.5,282.5C 319.5,286.833 319.5,291.167 319.5,295.5C 307.833,295.5 296.167,295.5 284.5,295.5C 284.5,291.167 284.5,286.833 284.5,282.5 Z"></path>
    </g>
    <g>
      <path fill="#fd6b39" d="M 369.5,283.5 C 369.5,291.5 369.5,299.5 369.5,307.5C 358.5,307.5 347.5,307.5 336.5,307.5C 336.5,299.5 336.5,291.5 336.5,283.5C 347.5,283.5 358.5,283.5 369.5,283.5 Z"></path>
    </g>
    <g>
      <path fill="#e74818" d="M 170.5,287.5 C 178.833,287.5 187.167,287.5 195.5,287.5C 195.5,288.5 195.5,289.5 195.5,290.5C 187.167,290.5 178.833,290.5 170.5,290.5C 170.5,289.5 170.5,288.5 170.5,287.5 Z"></path>
    </g>
    <g>
      <path fill="#d3d3d3" d="M 216.5,270.5 C 216.5,270.833 216.5,271.167 216.5,271.5C 216.5,283.5 216.5,295.5 216.5,307.5C 215.511,302.025 215.178,296.358 215.5,290.5C 210.5,290.5 205.5,290.5 200.5,290.5C 200.5,289.5 200.5,288.5 200.5,287.5C 205.5,287.5 210.5,287.5 215.5,287.5C 215.178,281.642 215.511,275.975 216.5,270.5 Z"></path>
    </g>
    <g>
      <path fill="#f5fcfc" d="M 289.5,287.5 C 297.833,287.5 306.167,287.5 314.5,287.5C 314.5,288.5 314.5,289.5 314.5,290.5C 306.167,290.5 297.833,290.5 289.5,290.5C 289.5,289.5 289.5,288.5 289.5,287.5 Z"></path>
    </g>
    <g>
      <path fill="#e74919" d="M 339.5,287.5 C 348.167,287.5 356.833,287.5 365.5,287.5C 365.5,288.5 365.5,289.5 365.5,290.5C 356.833,290.5 348.167,290.5 339.5,290.5C 339.5,289.5 339.5,288.5 339.5,287.5 Z"></path>
    </g>
    <g>
      <path fill="#bbbbbe" d="M 96.5,289.5 C 98.1667,289.5 99.8333,289.5 101.5,289.5C 101.5,290.5 101.5,291.5 101.5,292.5C 99.8333,292.5 98.1667,292.5 96.5,292.5C 96.5,291.5 96.5,290.5 96.5,289.5 Z"></path>
    </g>
    <g>
      <path fill="#f1eeee" d="M 96.5,297.5 C 108.5,298.167 108.5,298.833 96.5,299.5C 96.5,298.833 96.5,298.167 96.5,297.5 Z"></path>
    </g>
    <g>
      <path fill="#968b8d" d="M 96.5,304.5 C 98.1667,304.5 99.8333,304.5 101.5,304.5C 101.5,305.5 101.5,306.5 101.5,307.5C 100.167,307.5 98.8333,307.5 97.5,307.5C 97.5,308.833 97.5,310.167 97.5,311.5C 100.167,311.5 102.833,311.5 105.5,311.5C 105.737,312.791 105.404,313.791 104.5,314.5C 102.365,312.631 99.6981,311.964 96.5,312.5C 96.5,309.833 96.5,307.167 96.5,304.5 Z"></path>
    </g>
    <g>
      <path fill="#e3e0e0" d="M 96.5,312.5 C 99.6981,311.964 102.365,312.631 104.5,314.5C 101.833,314.5 99.1667,314.5 96.5,314.5C 96.5,313.833 96.5,313.167 96.5,312.5 Z"></path>
    </g>
    <g>
      <path fill="#beb4b4" d="M 96.5,319.5 C 98.288,319.215 99.9547,319.548 101.5,320.5C 100.311,321.429 98.9778,321.762 97.5,321.5C 97.5,323.167 97.5,324.833 97.5,326.5C 100.167,326.5 102.833,326.5 105.5,326.5C 105.5,327.5 105.5,328.5 105.5,329.5C 102.5,329.5 99.5,329.5 96.5,329.5C 96.5,326.167 96.5,322.833 96.5,319.5 Z"></path>
    </g>
    <g>
      <path fill="#e5e1e1" d="M 96.5,334.5 C 103.167,335.167 103.167,335.833 96.5,336.5C 96.5,335.833 96.5,335.167 96.5,334.5 Z"></path>
    </g>
    <g>
      <path fill="#e3e0e1" d="M 96.5,341.5 C 108.5,342.167 108.5,342.833 96.5,343.5C 96.5,342.833 96.5,342.167 96.5,341.5 Z"></path>
    </g>
    <g>
      <path fill="#bcbabe" d="M 96.5,348.5 C 98.1667,348.5 99.8333,348.5 101.5,348.5C 101.5,349.5 101.5,350.5 101.5,351.5C 99.8333,351.5 98.1667,351.5 96.5,351.5C 96.5,350.5 96.5,349.5 96.5,348.5 Z"></path>
    </g>
    <g>
      <path fill="#f1eeee" d="M 96.5,356.5 C 99.5719,356.183 102.572,356.516 105.5,357.5C 102.914,358.48 100.247,358.813 97.5,358.5C 97.1667,358.5 96.8333,358.5 96.5,358.5C 96.5,357.833 96.5,357.167 96.5,356.5 Z"></path>
    </g>
    <g>
      <path fill="#d3d5d8" d="M 97.5,363.5 C 99.4832,363.157 100.817,363.824 101.5,365.5C 99.5168,365.843 98.1834,365.176 97.5,363.5 Z"></path>
    </g>
    <g>
      <path fill="#fcf6f3" d="M 164.5,363.5 C 164.5,366.167 164.5,368.833 164.5,371.5C 164.5,374.167 164.5,376.833 164.5,379.5C 161.167,377.833 157.833,376.167 154.5,374.5C 154.5,372.5 154.5,370.5 154.5,368.5C 157.833,366.833 161.167,365.167 164.5,363.5 Z"></path>
    </g>
    <g>
      <path fill="#ffd45b" d="M 164.5,363.5 C 241.5,363.5 318.5,363.5 395.5,363.5C 395.5,368.833 395.5,374.167 395.5,379.5C 395.167,379.5 394.833,379.5 394.5,379.5C 394.5,376.833 394.5,374.167 394.5,371.5C 317.833,371.5 241.167,371.5 164.5,371.5C 164.5,368.833 164.5,366.167 164.5,363.5 Z"></path>
    </g>
    <g>
      <path fill="#fffefd" d="M 395.5,363.5 C 397.167,363.5 398.833,363.5 400.5,363.5C 400.5,368.833 400.5,374.167 400.5,379.5C 398.833,379.5 397.167,379.5 395.5,379.5C 395.5,374.167 395.5,368.833 395.5,363.5 Z"></path>
    </g>
    <g>
      <path fill="#605443" d="M 400.5,363.5 C 405.167,363.5 409.833,363.5 414.5,363.5C 414.821,369.026 414.488,374.36 413.5,379.5C 413.5,374.5 413.5,369.5 413.5,364.5C 409.5,364.5 405.5,364.5 401.5,364.5C 401.5,369.5 401.5,374.5 401.5,379.5C 401.167,379.5 400.833,379.5 400.5,379.5C 400.5,374.167 400.5,368.833 400.5,363.5 Z"></path>
    </g>
    <g>
      <path fill="#242d3c" d="M 413.5,379.5 C 409.5,379.5 405.5,379.5 401.5,379.5C 401.5,374.5 401.5,369.5 401.5,364.5C 405.5,364.5 409.5,364.5 413.5,364.5C 413.5,369.5 413.5,374.5 413.5,379.5 Z"></path>
    </g>
    <g>
      <path fill="#8d7573" d="M 96.5,358.5 C 96.8333,358.5 97.1667,358.5 97.5,358.5C 97.5,360.167 97.5,361.833 97.5,363.5C 98.1834,365.176 99.5168,365.843 101.5,365.5C 100.432,366.434 99.099,366.768 97.5,366.5C 97.5,367.833 97.5,369.167 97.5,370.5C 100.167,370.5 102.833,370.5 105.5,370.5C 105.737,371.791 105.404,372.791 104.5,373.5C 102.365,371.631 99.6981,370.964 96.5,371.5C 96.5,367.167 96.5,362.833 96.5,358.5 Z"></path>
    </g>
    <g>
      <path fill="#42404a" d="M 154.5,368.5 C 154.5,370.5 154.5,372.5 154.5,374.5C 146.736,372.884 146.736,370.884 154.5,368.5 Z"></path>
    </g>
    <g>
      <path fill="#e3dfe0" d="M 96.5,371.5 C 99.6981,370.964 102.365,371.631 104.5,373.5C 101.833,373.5 99.1667,373.5 96.5,373.5C 96.5,372.833 96.5,372.167 96.5,371.5 Z"></path>
    </g>
    <g>
      <path fill="#ffb733" d="M 164.5,371.5 C 241.167,371.5 317.833,371.5 394.5,371.5C 394.5,374.167 394.5,376.833 394.5,379.5C 317.833,379.5 241.167,379.5 164.5,379.5C 164.5,376.833 164.5,374.167 164.5,371.5 Z"></path>
    </g>
  </symbol>
  <symbol version="1.0" xmlns="http://www.w3.org/2000/svg" preserveAspectRatio="xMidYMid meet" viewBox="0 0 512.000000 512.000000" id="free-icon-download-button">
    <g transform="translate(0.000000,512.000000) scale(0.100000,-0.100000)" fill="#000000" stroke="none">
      <path d="M1658 4218 l-3 -903 -598 -5 -597 -5 1050 -1050 1050 -1050 1050
1050 1050 1050 -597 5 -598 5 -3 903 -2 902 -900 0 -900 0 -2 -902z"></path>
      <path d="M450 300 l0 -300 2110 0 2110 0 0 300 0 300 -2110 0 -2110 0 0 -300z"></path>
    </g>
  </symbol>
  <symbol version="1.0" xmlns="http://www.w3.org/2000/svg" preserveAspectRatio="xMidYMid meet" viewBox="0 0 512.000000 512.000000" id="telegram" fill="currentColor">
    <g transform="translate(0.000000,512.000000) scale(0.100000,-0.100000)">
      <path d="M4450 4406 c-36 -13 -965 -369 -2064 -790 -1232 -472 -2008 -774
-2023 -788 -31 -29 -47 -87 -39 -134 16 -81 21 -83 598 -278 440 -149 529
-176 547 -167 11 7 139 84 283 173 145 88 690 422 1212 741 974 595 981 598
981 541 0 -12 -322 -315 -907 -854 -499 -459 -918 -846 -932 -860 -23 -25 -24
-35 -57 -502 -23 -336 -30 -486 -23 -505 11 -33 55 -57 86 -47 12 3 152 134
312 290 160 156 294 284 298 284 5 0 242 -176 526 -392 284 -216 533 -401 552
-411 76 -40 186 -8 239 68 17 25 106 414 391 1710 204 923 370 1692 370 1708
0 60 -24 111 -75 162 -78 79 -157 93 -275 51z"></path>
    </g>
  </symbol>
  <symbol version="1.0" xmlns="http://www.w3.org/2000/svg" preserveAspectRatio="xMidYMid meet" viewBox="0 0 512.000000 512.000000" id="instagram" fill="currentColor">
    <g transform="translate(0.000000,512.000000) scale(0.100000,-0.100000)" >
      <path d="M2315 5109 c-800 -83 -1501 -518 -1927 -1196 -604 -960 -491 -2229
272 -3065 423 -463 951 -740 1585 -830 118 -17 511 -16 635 0 579 80 1097 337
1491 739 130 132 157 163 243 277 256 341 423 757 488 1211 17 118 17 512 0
630 -43 303 -122 561 -247 814 -134 268 -270 459 -483 674 -395 400 -889 649
-1457 733 -123 18 -478 26 -600 13z m848 -1089 c288 -19 456 -82 610 -228 156
-149 228 -332 247 -629 13 -195 13 -1006 0 -1204 -19 -300 -93 -485 -253 -636
-149 -141 -321 -205 -604 -223 -192 -12 -1014 -12 -1206 0 -288 19 -456 82
-610 228 -156 149 -228 332 -247 629 -13 194 -12 1028 0 1212 20 293 92 475
247 623 148 140 325 210 582 227 169 12 1061 12 1234 1z"></path>
      <path d="M2195 3759 c-300 -6 -349 -9 -416 -27 -213 -58 -334 -178 -391 -391
-18 -67 -21 -117 -27 -429 -3 -193 -3 -511 0 -705 6 -311 9 -361 27 -428 57
-213 178 -334 391 -391 67 -18 117 -21 429 -27 193 -3 511 -3 705 0 313 6 361
9 430 28 207 55 333 180 389 388 18 70 21 116 27 431 3 193 3 511 0 705 -6
312 -9 361 -27 428 -57 213 -179 335 -391 391 -78 20 -98 21 -661 31 -80 1
-298 -1 -485 -4z m1212 -250 c38 -14 83 -57 99 -96 49 -113 -38 -243 -161
-243 -94 0 -175 80 -175 174 0 121 124 208 237 165z m-604 -236 c121 -42 188
-85 283 -178 92 -91 149 -181 191 -300 26 -74 28 -91 28 -235 0 -144 -2 -161
-28 -235 -40 -115 -100 -209 -186 -296 -87 -86 -181 -146 -296 -186 -74 -26
-91 -28 -235 -28 -144 0 -161 2 -235 28 -119 42 -209 99 -300 191 -93 95 -135
162 -179 283 -30 85 -31 94 -31 243 1 141 3 162 28 235 52 155 163 301 297
390 146 97 251 126 440 122 120 -3 144 -7 223 -34z"></path>
      <path d="M2442 3034 c-263 -70 -423 -334 -357 -588 48 -183 178 -313 362 -361
344 -90 678 244 588 588 -70 267 -337 430 -593 361z"></path>
    </g>
  </symbol>
  <symbol version="1.0" xmlns="http://www.w3.org/2000/svg" preserveAspectRatio="xMidYMid meet" viewBox="0 0 512.000000 512.000000" id="vk" fill="currentColor">
    <g transform="translate(0.000000,512.000000) scale(0.100000,-0.100000)" >
      <path d="M2321 5110 c-1340 -130 -2361 -1283 -2318 -2620 13 -389 97 -726 268
-1069 249 -502 647 -900 1150 -1150 815 -406 1779 -350 2539 147 297 194 579
482 771 788 74 116 184 342 234 478 51 138 110 376 131 531 23 157 26 521 6
660 -59 415 -191 769 -410 1099 -92 140 -185 254 -315 385 -399 403 -895 653
-1462 737 -122 18 -466 26 -594 14z m391 -1902 c72 -32 73 -38 73 -348 0 -306
4 -330 56 -330 62 0 255 277 344 494 47 113 53 123 89 136 38 13 460 13 508 0
107 -30 69 -131 -171 -460 -172 -237 -196 -277 -186 -318 3 -13 74 -95 158
-181 191 -196 257 -284 257 -345 0 -14 -13 -40 -29 -58 l-29 -33 -244 0 -243
0 -54 30 c-35 20 -93 71 -165 148 -61 65 -125 127 -142 137 -42 27 -80 26 -98
-3 -16 -23 -39 -116 -51 -201 -5 -35 -15 -58 -35 -78 -28 -28 -29 -28 -162
-28 -255 1 -410 55 -611 217 -119 95 -278 305 -432 567 -71 121 -253 495 -262
536 -3 20 0 39 11 55 l17 26 224 -3 c208 -3 226 -4 252 -24 15 -11 36 -36 45
-55 9 -19 44 -90 77 -159 106 -220 251 -416 302 -408 31 4 45 36 60 129 15 96
4 350 -17 391 -16 31 -68 68 -95 68 -32 0 -41 25 -18 54 46 58 84 65 334 62
157 -2 208 -6 237 -18z"></path>
    </g>
  </symbol>
</svg>